<?xml version="1.0" encoding="UTF-8" standalone="no"?>
<svg
   width="652"
   height="534"
   viewBox="0 0 652 534"
   fill="none"
   version="1.1"
   id="svg3"
   sodipodi:docname="on-dark.svg"
   inkscape:version="1.4.2 (f4327f4, 2025-05-13)"
   xmlns:inkscape="http://www.inkscape.org/namespaces/inkscape"
   xmlns:sodipodi="http://sodipodi.sourceforge.net/DTD/sodipodi-0.dtd"
   xmlns="http://www.w3.org/2000/svg"
   xmlns:svg="http://www.w3.org/2000/svg">
  <defs
     id="defs3" />
  <sodipodi:namedview
     id="namedview3"
     pagecolor="#ffffff"
     bordercolor="#000000"
     borderopacity="0.25"
     inkscape:showpageshadow="2"
     inkscape:pageopacity="0.0"
     inkscape:pagecheckerboard="0"
     inkscape:deskcolor="#d1d1d1"
     inkscape:zoom="1.25"
     inkscape:cx="266.4"
     inkscape:cy="326"
     inkscape:window-width="1920"
     inkscape:window-height="1017"
     inkscape:window-x="-8"
     inkscape:window-y="-8"
     inkscape:window-maximized="1"
     inkscape:current-layer="svg3" />
  <g
     id="g3"
     transform="rotate(90,325.86667,326.04732)">
    <path
       d="m 422.401,411.821 c 6.478,-13.419 14.807,-36.287 14.86,-40.781 0.052,-2.425 -0.2,-3 -2.065,-4.756 -1.741,-1.579 -3.636,-2.207 -5.636,-1.861 -4.771,0.831 -10.129,7.121 -16.867,19.789 -0.436,0.831 -0.839,1.568 -1.188,2.196 0.398,-2.072 0.992,-5.091 1.635,-8.359 l 0.662,-3.365 c 3.207,-15.833 4.82,-26.579 4.313,-28.764 -0.233,-0.869 -1.012,-2.26 -1.738,-3.091 -1.282,-1.459 -1.861,-1.647 -4.805,-1.602 -3.756,0.057 -7.441,1.88 -9.618,4.764 -3.049,4.099 -6.219,12.596 -8.49,22.73 -1.699,7.756 -2.621,11.024 -3.109,12.393 -0.087,-0.576 -0.151,-1.279 -0.151,-1.914 -0.214,-11.66 -7.99,-30.509 -16.01,-38.796 -2.094,-2.087 -2.88,-2.613 -4.828,-2.613 -1.353,0 -2.801,0.459 -3.681,1.162 l -0.481,0.368 -0.545,-6.64 c -0.929,-11.288 -3.324,-21.755 -8.002,-35.006 l -1.959,-5.467 1.741,-1.474 c 11.709,-10.076 19.594,-21.247 26.369,-37.366 3.384,-8.047 4.888,-14.499 4.467,-19.188 -0.91,-10.719 -6.257,-16.408 -15.465,-16.465 -5.305,0 -9.663,1.978 -14.562,6.618 -9.096,8.467 -13.826,20.372 -14.454,36.4 -0.372,9.039 0.233,12.653 3.779,22.73 1.354,3.786 2.275,6.753 2.324,7.019 -0.485,1.305 -12.141,9.543 -23.696,16.007 -26.041,14.528 -42.435,21.481 -87.717,37.171 -7.411,2.534 -16.638,5.903 -20.605,7.456 -4.504,1.767 -12.896,4.832 -15.359,5.731 -4.836,1.755 -9.517,3.579 -10.904,4.245 -1.2,0.62 -1.703,0.782 -1.91,0.815 -0.143,-0.567 -0.542,-2.966 -0.978,-6.437 l -0.327,-2.297 c -0.429,-3.057 -0.921,-6.524 -1.29,-8.656 -1.801,-11.516 -2.086,-28.538 -0.925,-31.373 0.162,-0.38 0.707,-0.545 3.497,-0.545 3.38,0 4.689,-0.365 12.713,-3.531 2.722,-1.071 6.489,-2.545 10.212,-3.997 l 8.287,-3.245 c 10.438,-4.049 26.85,-11.99 35.833,-17.341 14.299,-8.546 24.88,-18.578 32.347,-30.678 2.421,-3.993 2.598,-3.981 3.41,-3.808 13.145,2.891 24.166,1.011 30.231,-5.159 6.531,-6.685 9.99,-18.112 10.892,-35.957 0.527,-10.573 -1.06,-26.286 -3.463,-34.329 -2.045,-6.674 -6.741,-12.942 -11.678,-15.596 -5.159,-2.817 -13.619,-3.745 -20.56,-2.249 -4.117,0.91 -8.625,3.166 -13.039,6.513 l -3.174,2.432 -11.472,-0.458 c -15.401,-0.636 -28.557,-0.091 -48.541,1.977 -10.81,1.087 -13.476,1.564 -21.936,3.93 -10.419,2.925 -15.585,4.809 -22.09,8.065 -11.78,5.888 -17.341,9.949 -27.038,19.755 -6.614,6.666 -10.893,12.043 -14.781,18.559 -2.805,4.73 -9.095,18.409 -12.239,26.613 -1.09,2.884 -2.628,6.719 -3.752,9.517 l -0.568,1.417 c -2.282,5.693 -6.655,18.47 -7.787,22.79 -1.135,4.346 -0.27,7.794 2.309,9.223 2.899,1.602 7.129,0.132 10.787,-3.741 3.279,-3.433 5.576,-6.979 10.258,-15.811 0.556,-1.06 1.052,-1.981 1.473,-2.763 -1.447,7.091 -4.463,22.729 -5.809,30.44 -0.913,5.167 -1.489,10.013 -1.293,11.085 0.256,0.966 1.203,2.357 2.113,3.098 2.32,1.929 6.933,1.993 9.686,0.143 2.203,-1.474 4.734,-4.561 6.444,-7.877 1.433,-2.805 4.114,-11.288 5.313,-16.815 0.73,-3.406 3.042,-11.915 4.294,-16.123 0.008,0.376 0.011,0.794 0.011,1.256 0,7.261 2.557,17.845 6.355,26.343 1.985,4.406 6.79,11.686 9.701,14.701 1.872,1.925 2.587,2.414 4.779,2.414 1.034,0 2.406,-0.154 3.147,-0.447 0.255,1.105 0.274,5.561 0.301,12.024 0,12.487 0.09,13.672 1.936,25.309 1.327,8.415 1.921,12.588 1.921,12.991 0,0.319 -0.771,1.143 -4.459,3.263 -8.998,5.178 -16.702,12.337 -22.286,20.71 -6.384,9.633 -9.302,21.075 -7.429,29.155 2.244,9.618 6.79,14.503 14.739,15.856 4.546,0.692 7.885,-0.154 12.288,-3.166 6.102,-4.151 10.828,-11.558 13.31,-20.853 0.688,-2.534 0.906,-5.711 0.906,-13.069 0.053,-8.509 -0.256,-13.589 -1.568,-25.907 l -0.271,-2.729 3.279,-1.497 c 1.997,-0.891 7.298,-2.937 11.577,-4.467 4.253,-1.496 10.709,-3.854 14.296,-5.268 3.602,-1.417 13.863,-5.042 21.864,-7.809 41.428,-14.243 53.817,-19.342 77.986,-32.08 12.333,-6.453 19.5,-10.743 27.377,-16.405 2.418,-1.749 4.249,-2.959 4.952,-3.369 1.207,2.019 5.58,15.325 7.508,24.086 0.824,3.584 2.452,16.086 2.584,19.718 -0.305,0.067 -1.023,0.131 -2.365,0.022 -1.903,-0.105 -4.543,0.173 -6.584,0.696 -13.205,3.444 -55.332,22.658 -65.326,29.794 -12.687,9.039 -22.072,19.029 -27.896,29.685 -1.237,2.268 -1.692,2.497 -1.801,2.508 -7.482,-2.865 -19.902,-2.902 -26.583,-0.094 -5.351,2.29 -9.723,8.832 -11.998,17.939 -2.741,10.611 -3.508,16.759 -3.561,28.591 -0.053,15.484 1.523,25.58 5.26,33.75 3.279,7.136 6.381,9.915 13.284,11.878 3.14,0.887 6.456,1.316 9.75,1.312 8.069,0 16.021,-2.557 20.966,-7.125 l 2.132,-1.985 12.494,-0.207 c 19.191,-0.312 38.461,-1.23 50.29,-2.403 27.52,-2.809 46.733,-11.43 64.228,-28.824 9.107,-9.005 21.681,-27.553 29.242,-43.154 z m -57.554,-28.207 c -1.083,7.621 -2.422,12.073 -5.313,17.646 -4.794,9.332 -9.75,14.288 -18.928,18.931 -4.057,2.031 -5.915,2.662 -9.039,3.068 -7.377,0.91 -11.844,-0.383 -15.942,-4.624 -3.321,-3.422 -4.422,-6.321 -4.37,-11.487 0.049,-10.107 5.836,-21.695 14.063,-28.17 2.91,-2.29 13.359,-8.99 18.95,-12.145 3.362,-1.91 9.099,-5.708 12.337,-8.167 l -0.072,0.192 c -2.744,7.84 -9.772,17.98 -15.322,22.139 -1.331,0.948 -2.876,2.354 -2.703,3.681 0.045,0.346 0.252,0.97 1.166,1.32 1.364,0.504 2.876,-0.346 6.47,-3.666 6.407,-6.035 11.664,-14.258 15.623,-24.444 l 0.873,-2.309 0.455,1.497 c 0.496,1.598 1.112,4.32 1.443,6.08 1.068,6.471 1.185,14.31 0.309,20.458 z m -7.554,-33.005 c -1.647,3.248 -6.806,7.234 -17.24,13.318 -16.506,9.633 -23.62,15.829 -28.2,24.56 -3.527,6.636 -4.858,11.69 -4.914,18.661 0,5.234 0.113,5.832 1.726,9.159 2.087,4.272 5.907,8.013 10.223,10.009 2.771,1.305 3.696,1.459 8.423,1.41 6.422,-0.052 9.949,-0.849 15.104,-3.399 8.926,-4.512 14.855,-10.031 19.826,-18.454 5.636,-9.554 7.843,-19.699 7.377,-33.919 -0.267,-8.573 -0.624,-11.013 -2.733,-18.631 -1.012,-3.782 -0.756,-6.839 0.77,-9.354 0.516,-0.843 0.959,-1.253 1.392,-1.29 0.022,-0.004 0.048,-0.004 0.075,-0.004 0.628,0 1.534,0.692 2.842,2.155 5.772,6.542 11.183,18.773 13.157,29.741 1.252,6.986 0.861,22.451 -0.722,28.531 -2.177,8.708 -6.174,17.379 -10.686,23.188 -0.489,0.62 -2.933,3.749 -2.933,4.309 0,0.684 0.62,1.207 0.989,1.463 0.564,0.391 1.38,0.71 2.015,0.477 1.606,-0.602 7.031,-8.516 8.96,-12.37 2.753,-5.561 4.873,-11.622 6.87,-19.658 0.827,-3.357 2.35,-8.978 3.376,-12.223 2.456,-8.137 3.117,-10.664 4.7,-18.022 2.448,-11.314 6.001,-20.293 9.039,-22.876 1.79,-1.5 4.445,-2.29 5.892,-1.729 0.737,0.278 0.888,0.338 0.888,2.703 0,8.028 -7.979,46.154 -12.371,59.13 -3.327,9.772 -8.106,20.281 -11.118,24.432 -0.812,1.057 -1.06,2.17 -0.666,2.974 0.297,0.609 0.933,0.959 1.737,0.959 2.975,0 7.483,-9.689 10.739,-17.815 3.11,-7.779 3.41,-8.445 10.821,-23.673 7.757,-15.98 12.179,-22.688 16.323,-24.759 1.165,-0.594 2.094,-0.756 2.699,-0.474 0.421,0.195 0.715,0.632 0.872,1.305 0.583,2.335 -6.971,23.684 -14.028,38.34 -8.926,18.582 -22.177,37.668 -32.223,46.41 -16.259,14.175 -32.31,21.079 -55.408,23.842 -10.475,1.309 -40.664,2.858 -55.693,2.858 -17.002,-0.049 -17.375,-0.263 -19.721,-11.532 -2.576,-12.423 -3.422,-33.558 -1.715,-42.672 3.204,-16.935 11.359,-32.43 22.978,-43.631 8.512,-8.208 17.424,-14.161 30.753,-20.537 23.304,-11.164 45.041,-19.902 49.474,-19.902 0.568,0 0.985,0.222 1.263,0.673 0.617,1.004 0.568,3.35 -0.932,6.317 z m -104.205,62.085 c -4.361,12.513 -5.67,26.658 -3.993,43.236 1.688,17.492 3.256,23.775 6.704,26.895 1.132,0.982 2.85,2.11 3.967,2.369 0.387,0.075 0.654,0.196 0.805,0.29 -1.17,1.086 -8.475,4.463 -11.844,5.064 -7.129,1.264 -16.601,-0.515 -20.267,-3.824 -7.745,-6.978 -11.599,-31.287 -8.418,-53.076 1.598,-11.028 4.038,-19.01 7.26,-23.733 1.523,-2.214 5.039,-4.136 9.404,-5.136 1.504,-0.346 3.568,-0.508 5.775,-0.508 3.617,0 7.614,0.437 10.137,1.226 1.294,0.391 2.185,0.812 2.549,1.038 -0.338,0.962 -1.255,3.692 -2.079,6.159 z m 99.843,-125.498 c -1.643,-3.309 -5.125,-15.344 -5.568,-19.352 -1.185,-11.138 2.019,-25.335 7.621,-33.765 3.132,-4.753 7.065,-8.633 10.521,-10.389 2.282,-1.143 3.113,-1.448 5.091,-1.448 0.504,0 1.079,0.019 1.771,0.049 3.489,0.154 3.978,0.297 5.771,1.707 3.05,2.444 4.275,5.411 4.531,10.938 0.154,4.177 0.011,5.065 -1.692,10.487 -2.282,7.102 -8.385,19.206 -13.058,25.906 -4.189,5.922 -13.078,14.92 -14.988,15.867 z M 186.875,402.079 c -1.38,11.833 -7.975,22.425 -15.676,25.174 -5.621,1.958 -11.942,-0.632 -14.686,-6.032 -6.896,-13.332 2.004,-34.494 19.834,-47.169 4.154,-2.917 7.599,-4.771 8.636,-5.034 0.192,0.895 0.579,3.763 1.11,8.742 1.259,12.953 1.447,18.86 0.782,24.319 z M 161.156,255.466 c 1.861,-13.589 5.385,-23.106 11.077,-29.938 2.068,-2.47 2.79,-3.944 2.414,-4.933 -0.21,-0.549 -0.718,-0.879 -1.515,-0.996 -0.068,-0.011 -0.136,-0.015 -0.207,-0.015 -0.929,0 -2.053,0.857 -3.79,2.861 -4.873,5.61 -7.388,11.055 -11.227,24.331 -1.264,4.313 -3.377,11.536 -4.832,16.108 -1.44,4.693 -3.361,11.603 -4.283,15.409 -4.196,17.348 -6.2,22.759 -9.757,26.308 -1.861,1.862 -2.173,1.959 -3.828,1.816 -1.128,-0.086 -1.752,-0.199 -2.034,-0.56 -0.676,-0.861 -0.199,-3.839 0.771,-9.468 6.625,-39.465 12.637,-60.539 21.451,-75.151 1.425,-2.312 1.839,-3.733 1.35,-4.609 -0.29,-0.527 -0.858,-0.79 -1.677,-0.79 -1.489,0 -4.223,2.418 -12.141,21.244 -4.475,10.566 -12.514,27.519 -16.232,34.231 -4.132,7.358 -8.509,11.618 -10.701,12.021 -0.433,0.079 -0.76,0.015 -1.008,-0.192 -0.338,-0.282 -0.594,-0.666 -0.323,-2.515 0.726,-5.419 11.276,-33.589 18.507,-49.403 6.282,-13.807 12.265,-22.271 22.857,-32.347 11.877,-11.31 26.128,-18.609 47.646,-24.41 7.404,-1.963 20.789,-3.576 38.717,-4.67 10.419,-0.617 15.048,-0.621 33.039,0.004 8.302,0.244 10.855,0.673 11.867,1.962 3.173,4.193 6.869,27.58 6.091,38.484 -0.158,1.775 -0.523,6.625 -0.835,10.799 -0.996,13.396 -2.493,19.318 -6.971,27.545 -6.05,11.164 -15.826,21.346 -28.271,29.452 -9.758,6.434 -26.324,14.762 -39.401,19.801 -4.279,1.658 -10.604,4.132 -14.337,5.628 -11.641,4.61 -13.273,5.174 -14.796,5.02 -1.098,-0.109 -1.098,-0.109 -1.056,-1.967 0.255,-6.519 6.79,-13.197 20.563,-21.007 8.445,-4.816 9.137,-5.215 13.307,-8.539 5.997,-4.741 11.032,-10.483 13.806,-15.769 3.129,-6.144 3.817,-9.381 3.501,-16.495 -0.263,-5.212 -0.485,-6.223 -2.136,-9.855 -1.56,-3.286 -2.44,-4.426 -4.707,-6.099 -4.023,-2.951 -8.223,-4.121 -14.965,-4.173 -0.267,-0.004 -0.53,-0.004 -0.786,-0.004 -6.076,0 -10.159,1.248 -16.352,4.933 -10.784,6.426 -19.827,21.293 -22,36.152 -1.045,7.208 -0.41,22.248 1.26,29.802 1.711,7.813 1.737,10.329 0.113,12.235 -0.715,0.872 -1.614,1.41 -1.858,1.41 -1.414,0 -7.802,-8.035 -10.896,-14.886 -5.599,-12.336 -7.374,-25.019 -5.415,-38.765 z m 132.089,-12.363 c 2.914,-9.269 5.038,-29.084 4.456,-41.578 -0.986,-20.007 -5.212,-34.194 -10.502,-35.149 1.282,-1.109 5.58,-3.542 9.283,-4.726 4.012,-1.327 11.156,-1.271 15.597,0.105 h 0.004 c 2.993,0.914 3.91,1.5 6.538,4.177 1.876,1.933 3.76,4.513 4.689,6.419 3.294,6.742 5.05,20.518 4.58,35.957 -0.354,13.209 -1.839,20.973 -5.298,27.688 -2.587,4.964 -5.546,7.693 -10.22,9.427 -3.546,1.282 -4.534,1.444 -10.069,1.368 -3.7,-0.056 -7.238,-0.334 -8.253,-0.661 l -1.621,-0.422 z m -106.807,9.749 c 4.787,-11.016 13.901,-19.837 23.786,-23.033 2.275,-0.737 3.576,-1.064 5.501,-1.064 1.365,0 3.053,0.165 5.621,0.466 h 0.008 c 5.373,0.549 9.577,3.493 11.848,8.279 1.188,2.474 2.124,13.288 -1.196,20.665 -1.993,4.43 -3.196,5.757 -7.445,10.009 -5.877,5.821 -9.866,8.735 -17.8,12.987 -7.493,4.065 -11.032,6.46 -15.122,10.246 -0.316,0.294 -1.008,0.944 -1.595,1.456 1.516,-3.828 7.009,-13.894 9.788,-17.808 1.718,-2.399 3.756,-5.264 4.485,-6.309 1.061,-1.527 1.384,-2.711 0.963,-3.523 -0.218,-0.414 -0.73,-0.91 -1.948,-0.91 -2.542,0 -9.464,10.385 -14.419,20.003 -1.58,3.065 -3.527,7.441 -4.257,9.577 -0.319,1.034 -0.628,1.835 -0.861,2.354 -0.722,-2.343 -1.752,-9.494 -1.948,-16.379 -0.406,-11.438 0.711,-18.003 4.591,-27.016 z"
       fill="#ffffff"
       id="path1" />
    <path
       d="m 331.46,553.137 c 2.198,-2.419 4.114,-5.34 5.483,-8.217 1.382,-2.907 2.14,-5.633 2.163,-7.674 v -0.007 c 0.032,-2.036 -0.797,-4.506 -2.367,-6.917 -1.557,-2.393 -3.758,-4.593 -6.258,-6.106 l -0.009,-0.006 c -1.417,-0.87 -2.269,-1.315 -3.117,-1.592 -0.843,-0.276 -1.775,-0.418 -3.395,-0.54 -6.757,-0.469 -14.76,1.718 -20.799,5.727 l -0.044,0.03 c -3.117,2.049 -10.814,8.657 -20.67,17.806 -3.557,3.331 -7.8,7.005 -9.476,8.168 l -0.013,0.01 -0.011,0.007 c -1.298,0.893 -2.199,1.525 -3.78,1.919 -1.421,0.354 -3.433,0.526 -7.007,0.827 -5.325,0.469 -12.297,0.62 -18.878,0.44 l -9.007,-0.247 8.477,-3.055 c 9.75,-3.513 19.168,-8.905 23.866,-13.631 l 0.077,-0.077 c 1.906,-1.921 3.642,-4.255 4.954,-6.572 1.259,-2.224 2.065,-4.323 2.32,-5.95 l 0.044,-0.319 c 0.194,-1.709 -0.018,-3.652 -0.557,-5.447 -0.413,-1.378 -0.994,-2.587 -1.655,-3.5 l -0.012,0.011 -0.675,-0.823 c -0.899,-0.951 -2.509,-1.929 -4.555,-2.689 -2.028,-0.753 -4.327,-1.233 -6.459,-1.293 l -0.021,-10e-4 h -0.008 c -3.752,-0.135 -7.935,1.237 -12.554,4.343 -4.624,3.109 -9.591,7.894 -14.856,14.401 l -0.001,10e-4 c -2.455,3.026 -4.645,6.423 -8.747,13.603 l -0.003,0.006 -4.975,8.637 -1.198,-0.24 c -11.009,-2.195 -22.668,-5.693 -34.545,-11.071 l -5.821,-2.636 6.361,-0.607 1.289,-0.13 c 2.981,-0.317 5.769,-0.721 6.428,-0.855 8.712,-1.942 18.445,-7.263 24.19,-13.168 l 0.083,-0.086 c 2.55,-2.616 4.034,-4.668 4.8,-6.6 0.654,-1.652 0.824,-3.32 0.552,-5.345 l -0.06,-0.41 -0.081,-0.464 c -0.428,-2.277 -1.006,-3.774 -1.87,-4.942 -0.863,-1.168 -2.12,-2.155 -4.165,-3.222 -1.948,-0.982 -3.509,-1.598 -5.123,-1.973 -1.616,-0.375 -3.328,-0.519 -5.589,-0.513 -1.813,0.035 -4.396,0.439 -7.008,1.066 -2.611,0.627 -5.106,1.444 -6.754,2.24 -1.667,0.806 -4.175,2.426 -6.72,4.302 -2.526,1.862 -4.974,3.893 -6.554,5.487 l -0.002,0.002 -0.032,0.033 c -4.199,4.153 -10.239,11.573 -12.366,15.158 l -1.209,2.036 -1.485,-0.967 c -11.306,-7.34 -22.542,-16.632 -33.347,-28.319 l -4.275,-4.624 6.023,1.843 c 5.649,1.729 11.72,2.587 17.306,2.564 5.608,-0.024 10.6,-0.934 14.158,-2.632 l 0.024,-0.012 0.007,-0.002 c 3.943,-1.843 6.097,-4.006 7.702,-7.55 l 0.005,-0.01 0.006,-0.012 0.004,-0.008 c 0.787,-1.653 1.204,-3.132 1.295,-4.623 0.09,-1.483 -0.139,-3.034 -0.716,-4.84 l -0.009,-0.022 -0.014,-0.048 c -0.572,-1.908 -1.207,-3.166 -2.069,-4.158 -0.865,-0.994 -2.062,-1.841 -3.953,-2.755 -3.471,-1.621 -7.613,-2.104 -14.149,-1.399 h -0.001 c -8.753,0.931 -19.518,5.125 -28.72,11.282 l -1.656,1.129 -0.005,0.003 c -0.513,0.345 -0.978,0.654 -1.379,0.921 l -0.56,0.373 -0.799,0.531 -0.959,-1.319 -1.155,-1.61 c -2.661,-3.761 -5.079,-7.547 -7.24,-11.345 l -0.025,-0.045 -0.01,-0.021 c -0.333,-0.61 -0.653,-1.206 -0.958,-1.784 l -0.001,-0.002 -0.262,-0.497 -0.008,-0.016 -0.002,-0.005 c -0.381,-0.741 -0.748,-1.465 -1.07,-2.138 l -0.003,-0.007 -0.651,-1.388 -0.003,-0.006 c -3.281,-7.124 -6.5237,-16.149 -7.9225,-21.071 l -1.4148,-4.977 4.0916,3.166 1.8477,1.42 c 9.84,7.506 22.134,10.194 30.484,7.142 1.522,-0.556 2.531,-1.164 3.317,-1.861 0.794,-0.705 1.44,-1.569 2.164,-2.761 1.107,-1.842 1.676,-3.544 1.801,-5.228 0.125,-1.686 -0.187,-3.463 -0.998,-5.463 l -0.006,-0.013 -0.244,-0.583 c -1.291,-2.886 -3.538,-5.363 -6.584,-7.172 -1.422,-0.843 -4.022,-1.749 -6.998,-2.444 -2.947,-0.688 -6.058,-1.124 -8.425,-1.123 l -0.001,0.001 c -2.42,-0.002 -6.268,0.584 -10.092,1.47 -3.824,0.885 -7.3755,2.012 -9.2781,3 l -0.9026,0.493 c -0.0031,0.002 -0.0094,0.006 -0.021,0.012 -0.018,0.011 -0.0423,0.025 -0.069,0.04 l -0.1811,0.1 -1.9712,1.037 -0.4804,-2.177 -0.1704,-0.855 c -0.1762,-0.953 -0.3651,-2.159 -0.5329,-3.241 l -0.355,-2.23 -0.001,-0.009 -0.0021,-0.008 -7e-4,-0.009 c -0.4436,-3.089 -1.0379,-8.784 -1.2266,-12.621 l 1e-4,-0.003 c -0.1309,-2.782 -0.1588,-6.152 -0.118,-9.325 l -2e-4,-0.004 8e-4,-0.01 -1e-4,-0.012 c 0.0718,-2.52 0.2035,-5.002 0.3928,-7.44 l 0.342,-4.39 2.6981,3.479 c 3.1751,4.093 7.4616,7.705 11.7636,10.179 4.362,2.509 8.469,3.696 11.327,3.336 3.36,-0.464 5.232,-1.532 6.419,-3.181 l 0.229,-0.338 0.246,-0.415 c 1.623,-2.828 1.729,-5.568 0.479,-8.244 l -0.126,-0.261 c -1.348,-2.691 -4.144,-5.463 -8.585,-8.099 -6.605,-3.92 -12.021,-5.116 -19.5697,-4.335 l -0.0111,0.002 -3.8888,0.377 0.3621,-2.184 c 4.5887,-27.748 14.8905,-46.87 15.1615,-47.365 l 0.008,-0.015 c 0.593,-1.086 0.193,-2.412 -0.846,-2.975 l -0.017,-0.009 -0.007,-0.004 c -1.035,-0.566 -2.345,-0.208 -2.958,0.824 l -0.042,0.07 c -0.002,0.004 -0.005,0.009 -0.008,0.016 -0.008,0.014 -0.019,0.034 -0.032,0.059 -0.026,0.049 -0.063,0.118 -0.11,0.206 -0.093,0.177 -0.226,0.432 -0.393,0.762 -0.333,0.658 -0.805,1.615 -1.38,2.848 -1.152,2.467 -2.7171,6.037 -4.419,10.533 -3.4045,8.994 -7.3529,21.684 -9.6333,36.656 l -0.1973,1.302 -1.3089,0.135 h -0.0013 c -0.8767,0.09 -1.9151,0.19 -3.1879,0.301 -6.9453,0.674 -13.3828,2.496 -18.637,5.105 -5.2744,2.619 -9.2512,5.974 -11.4296,9.644 -0.7236,1.219 -1.2497,2.477 -1.5732,3.726 l -0.0039,0.018 -0.0028,0.008 c -0.8162,2.956 -0.1461,6.79 1.4576,8.953 l 0.0131,0.018 0.2782,0.356 c 3.0153,3.659 8.9249,4.563 15.2686,1.334 4.1,-2.143 9.8702,-7.98 14.5045,-14.727 l 3.3782,-4.916 -0.2767,5.959 c -0.5203,11.216 0.1445,23.251 2.6298,35.664 l 0.1153,0.575 0.1634,0.819 -1.321,0.521 c -0.0703,0.027 -0.1139,0.048 -0.2286,0.098 -0.1004,0.043 -0.2287,0.098 -0.3962,0.162 l -0.0532,0.021 -0.0031,10e-4 -0.1854,0.07 c -3.1363,1.21 -7.193,3.691 -11.2751,6.827 -3.8109,2.928 -7.5551,6.359 -10.4917,9.711 l -0.5883,0.683 c -1.3572,1.616 -2.2064,2.705 -2.917,3.836 -0.7111,1.131 -1.3015,2.329 -2.1181,4.177 -2.0939,4.744 -2.7422,9.031 -2.1511,12.641 0.5673,3.464 2.291,6.406 5.1815,8.645 l 0.2828,0.214 0.5339,0.386 c 2.4362,1.668 5.0118,2.139 8.7877,1.406 l 0.0303,-0.007 c 2.7791,-0.521 4.882,-1.426 6.9305,-3.137 2.103,-1.757 4.2206,-4.421 6.9071,-8.602 l 0.0015,-0.003 c 3.3718,-5.222 5.4444,-9.993 6.6569,-14.998 l 1.2505,-5.164 1.9816,4.931 0.3845,0.945 c 3.8808,9.462 9.0262,18.971 15.7632,28.357 l 0.678,0.938 0.817,1.118 -0.93,1.026 c -0.585,0.645 -1.392,1.509 -2.319,2.449 -4.664,4.823 -9.061,12.399 -11.1383,19.234 l -0.0346,0.116 -0.002,0.004 c -2.8256,9.212 -3.2846,17.469 -1.5159,23.986 l 0.1793,0.628 c 2.1129,6.944 7.0825,12.319 13.1945,14.476 4.776,1.687 9.483,1.139 13.333,-1.454 l 0.23,-0.165 c 1.167,-0.862 2.425,-2.353 3.526,-4.234 1.155,-1.972 2.064,-4.245 2.506,-6.4 v -0.002 l 0.013,-0.067 c 1.334,-6.301 0.128,-13.228 -5.905,-30.576 -0.168,-0.479 -0.315,-0.917 -0.466,-1.358 l -2.529,-7.414 5.376,5.698 c 10.425,11.049 21.209,19.954 32.044,27.073 l 1.049,0.682 0.4,0.258 0.573,0.371 -0.231,1.137 -1.039,5.155 -0.273,1.398 c -1.272,6.849 -1.856,15.224 -1.416,19.872 l 0.046,0.438 c 0.23,1.945 0.966,5.37 1.624,7.576 3.882,12.966 10.202,20.348 17.888,22.258 l 0.35,0.08 c 1.781,0.364 3.965,0.239 6.074,-0.325 2.258,-0.603 4.219,-1.653 5.401,-2.881 l 0.004,-0.005 0.006,-0.005 0.004,-0.003 c 1.839,-1.879 2.913,-3.907 3.332,-6.32 0.399,-2.301 0.218,-5.054 -0.616,-8.49 l -0.176,-0.697 c -1.959,-7.372 -6.906,-15.781 -16.233,-27.218 l -4.839,-5.933 6.894,3.327 1.49,0.709 c 3.475,1.633 6.935,3.111 10.368,4.441 l 0.022,0.009 0.01,0.003 0.016,0.007 c 1.554,0.657 2.931,1.213 3.937,1.583 5.361,1.936 9.193,3.107 13.342,4.026 l 0.073,0.009 0.08,0.028 c 3.563,0.935 7.072,1.731 10.517,2.4 l 0.404,0.08 0.574,0.111 1.626,4.928 0.011,0.032 0.002,0.006 c 3.576,11.057 9.839,21.782 16.233,27.99 l 0.082,0.08 0.001,0.001 c 4.361,4.235 10.376,7.628 15.237,8.673 h 0.002 c 4.575,0.993 8.079,0.98 10.804,0.101 2.668,-0.861 4.768,-2.608 6.463,-5.464 1.446,-2.436 1.904,-4.998 1.421,-7.669 -0.489,-2.704 -1.964,-5.626 -4.565,-8.679 l -0.003,-0.004 -0.009,-0.01 -0.008,-0.01 c -1.946,-2.368 -2.627,-2.841 -12.7,-8.82 -3.449,-2.047 -6.433,-3.74 -8.929,-5.084 l -6.34,-3.416 7.197,0.219 2.3,0.054 c 11.386,0.194 21.186,-0.741 28.613,-1.866 l 0.145,-0.024 0.213,-0.034 0.207,0.057 0.144,0.039 c 0.992,0.271 2.074,0.581 3.216,0.931 l 0.006,10e-4 0.012,0.004 c 14.752,4.624 24.468,5.14 34.94,2.084 l 0.003,-10e-4 c 5.79,-1.673 12.969,-5.969 16.57,-9.862 z"
       fill="#ffffff"
       id="path2" />
    <path
       d="m 202.179,98.6906 c -2.199,2.4194 -4.115,5.3404 -5.483,8.2174 -1.382,2.907 -2.141,5.633 -2.164,7.674 l 10e-4,0.007 c -0.033,2.036 0.797,4.506 2.366,6.917 1.558,2.393 3.759,4.593 6.258,6.106 l 0.009,0.006 c 1.417,0.87 2.269,1.315 3.117,1.592 0.844,0.276 1.776,0.418 3.396,0.54 6.756,0.469 14.759,-1.718 20.798,-5.727 l 0.044,-0.03 c 3.117,-2.049 10.815,-8.657 20.67,-17.806 3.558,-3.331 7.801,-7.0051 9.476,-8.1678 l 0.014,-0.0099 0.011,-0.0071 c 1.298,-0.8934 2.198,-1.5249 3.779,-1.9189 1.422,-0.3542 3.434,-0.5262 7.007,-0.8273 5.325,-0.4689 12.297,-0.62 18.879,-0.4395 l 9.006,0.2469 -8.476,3.0543 c -9.75,3.5133 -19.169,8.9053 -23.866,13.6313 l -0.078,0.077 c -1.905,1.921 -3.641,4.255 -4.954,6.572 -1.259,2.224 -2.065,4.323 -2.319,5.95 l -0.045,0.32 c -0.193,1.708 0.019,3.651 0.557,5.446 0.414,1.379 0.995,2.587 1.656,3.5 l 0.012,-0.011 0.674,0.823 c 0.899,0.951 2.509,1.929 4.555,2.689 2.028,0.753 4.328,1.233 6.459,1.293 l 0.022,0.001 h 0.008 c 3.752,0.135 7.935,-1.237 12.553,-4.342 4.625,-3.11 9.591,-7.895 14.857,-14.402 l 10e-4,-0.001 c 2.454,-3.026 4.645,-6.423 8.746,-13.603 l 0.004,-0.006 4.975,-8.6365 1.197,0.2397 c 11.009,2.1946 22.668,5.6928 34.545,11.0708 l 5.821,2.636 -6.36,0.607 -1.289,0.13 c -2.982,0.317 -5.769,0.721 -6.428,0.855 -8.713,1.942 -18.446,7.263 -24.191,13.168 l -0.082,0.086 c -2.551,2.616 -4.034,4.668 -4.8,6.6 -0.655,1.652 -0.825,3.32 -0.553,5.345 l 0.06,0.41 0.081,0.464 c 0.428,2.277 1.007,3.774 1.87,4.942 0.864,1.168 2.121,2.155 4.165,3.222 1.948,0.982 3.51,1.598 5.124,1.973 1.615,0.375 3.328,0.519 5.588,0.513 1.814,-0.035 4.397,-0.439 7.008,-1.066 2.611,-0.627 5.106,-1.444 6.755,-2.24 1.666,-0.806 4.174,-2.426 6.72,-4.302 2.525,-1.862 4.974,-3.893 6.553,-5.487 l 0.003,-0.002 0.031,-0.033 c 4.2,-4.153 10.239,-11.573 12.367,-15.158 l 1.209,-2.036 1.485,0.967 c 11.305,7.34 22.542,16.632 33.346,28.319 l 4.276,4.624 -6.023,-1.843 c -5.649,-1.729 -11.721,-2.587 -17.306,-2.564 -5.609,0.024 -10.601,0.934 -14.159,2.632 l -0.024,0.012 -0.007,0.002 c -3.942,1.843 -6.096,4.006 -7.702,7.55 l -0.004,0.01 -0.007,0.012 -0.003,0.008 c -0.788,1.653 -1.205,3.132 -1.295,4.623 -0.09,1.483 0.139,3.034 0.715,4.841 l 0.009,0.021 0.015,0.048 c 0.572,1.908 1.206,3.166 2.069,4.158 0.864,0.994 2.061,1.841 3.953,2.755 3.47,1.621 7.613,2.104 14.148,1.399 h 0.002 c 8.752,-0.931 19.518,-5.125 28.719,-11.282 l 1.656,-1.129 0.005,-0.003 c 0.513,-0.345 0.978,-0.654 1.38,-0.921 l 0.559,-0.373 0.799,-0.531 0.959,1.319 1.156,1.61 c 2.661,3.761 5.078,7.547 7.24,11.345 l 0.025,0.045 0.01,0.021 c 0.333,0.61 0.652,1.206 0.958,1.784 l 10e-4,0.002 0.261,0.497 0.009,0.016 0.002,0.005 c 0.381,0.741 0.748,1.465 1.07,2.139 l 0.003,0.006 0.651,1.388 0.003,0.006 c 3.281,7.124 6.523,16.149 7.922,21.072 l 1.415,4.976 -4.092,-3.166 -1.848,-1.42 c -9.839,-7.506 -22.134,-10.194 -30.484,-7.142 -1.522,0.556 -2.53,1.164 -3.316,1.861 -0.795,0.705 -1.44,1.57 -2.165,2.761 -1.107,1.842 -1.676,3.544 -1.8,5.228 -0.125,1.686 0.187,3.463 0.998,5.463 l 0.005,0.014 0.245,0.582 c 1.29,2.886 3.537,5.363 6.584,7.172 1.421,0.843 4.021,1.749 6.998,2.444 2.946,0.688 6.058,1.124 8.425,1.123 l 10e-4,-0.001 c 2.42,0.002 6.268,-0.584 10.091,-1.47 3.824,-0.885 7.376,-2.012 9.279,-3 l 0.902,-0.493 c 0.003,-0.002 0.009,-0.006 0.021,-0.012 0.018,-0.011 0.042,-0.025 0.069,-0.04 l 0.181,-0.1 1.971,-1.037 0.481,2.177 0.17,0.855 c 0.176,0.953 0.365,2.159 0.533,3.241 l 0.355,2.23 0.001,0.01 0.002,0.008 0.001,0.008 c 0.444,3.089 1.038,8.785 1.227,12.621 l -10e-4,0.003 c 0.131,2.782 0.159,6.152 0.118,9.325 l 10e-4,0.004 -10e-4,0.011 v 0.011 c -0.072,2.52 -0.204,5.002 -0.393,7.44 l -0.342,4.39 -2.698,-3.479 c -3.175,-4.093 -7.462,-7.705 -11.764,-10.179 -4.362,-2.509 -8.468,-3.696 -11.327,-3.336 -3.36,0.464 -5.232,1.532 -6.418,3.181 l -0.229,0.338 -0.246,0.415 c -1.624,2.828 -1.73,5.568 -0.48,8.244 l 0.126,0.261 c 1.348,2.691 4.145,5.463 8.586,8.099 6.605,3.92 12.02,5.116 19.569,4.335 l 0.011,-0.002 3.889,-0.377 -0.362,2.184 c -4.589,27.748 -14.89,46.87 -15.162,47.365 l -0.008,0.015 c -0.593,1.087 -0.192,2.412 0.847,2.975 l 0.017,0.009 0.007,0.004 c 1.035,0.566 2.345,0.208 2.958,-0.824 l 0.041,-0.07 c 0.002,-0.004 0.005,-0.009 0.009,-0.016 0.007,-0.014 0.018,-0.034 0.031,-0.059 0.027,-0.049 0.064,-0.118 0.11,-0.206 0.093,-0.177 0.226,-0.432 0.393,-0.762 0.334,-0.658 0.805,-1.615 1.381,-2.848 1.151,-2.467 2.717,-6.037 4.418,-10.533 3.405,-8.993 7.353,-21.684 9.634,-36.656 l 0.197,-1.302 1.309,-0.135 h 0.001 c 0.877,-0.09 1.915,-0.19 3.188,-0.301 6.945,-0.674 13.383,-2.496 18.637,-5.105 5.274,-2.619 9.251,-5.974 11.43,-9.644 0.723,-1.219 1.249,-2.477 1.573,-3.726 l 0.004,-0.018 0.003,-0.008 c 0.816,-2.956 0.146,-6.79 -1.458,-8.953 l -0.013,-0.018 -0.278,-0.356 c -3.016,-3.659 -8.925,-4.563 -15.269,-1.334 -4.1,2.144 -9.87,7.98 -14.504,14.727 l -3.379,4.917 0.277,-5.96 c 0.52,-11.216 -0.144,-23.251 -2.63,-35.664 l -0.115,-0.574 -0.163,-0.82 1.321,-0.52 c 0.07,-0.028 0.113,-0.049 0.228,-0.099 0.101,-0.043 0.229,-0.098 0.396,-0.162 l 0.054,-0.021 0.003,-0.001 0.185,-0.07 c 3.136,-1.21 7.193,-3.691 11.275,-6.827 3.811,-2.928 7.555,-6.359 10.492,-9.711 l 0.588,-0.683 c 1.357,-1.616 2.207,-2.705 2.917,-3.836 0.711,-1.131 1.302,-2.329 2.118,-4.177 2.094,-4.744 2.743,-9.031 2.151,-12.641 -0.567,-3.464 -2.291,-6.406 -5.181,-8.645 l -0.283,-0.214 -0.534,-0.386 c -2.436,-1.668 -5.012,-2.139 -8.787,-1.406 l -0.031,0.007 c -2.779,0.521 -4.882,1.426 -6.93,3.137 -2.103,1.757 -4.221,4.421 -6.907,8.603 l -0.002,0.002 c -3.372,5.222 -5.444,9.993 -6.657,14.998 l -1.25,5.164 -1.982,-4.93 -0.384,-0.946 c -3.881,-9.462 -9.026,-18.971 -15.763,-28.357 l -0.679,-0.938 -0.816,-1.118 0.929,-1.026 c 0.585,-0.645 1.392,-1.509 2.319,-2.449 4.665,-4.822 9.062,-12.399 11.139,-19.234 l 0.034,-0.116 0.002,-0.004 c 2.826,-9.212 3.285,-17.469 1.516,-23.986 l -0.179,-0.628 c -2.113,-6.944 -7.082,-12.319 -13.195,-14.476 -4.775,-1.687 -9.482,-1.1391 -13.332,1.4543 l -0.231,0.1651 c -1.166,0.8616 -2.424,2.3536 -3.526,4.2336 -1.155,1.972 -2.064,4.246 -2.505,6.4 v 0.002 l -0.014,0.067 c -1.334,6.301 -0.127,13.228 5.906,30.576 0.167,0.479 0.315,0.918 0.465,1.358 l 2.529,7.414 -5.376,-5.698 C 396.347,133.054 385.563,124.149 374.728,117.03 l -1.048,-0.682 -0.4,-0.258 -0.574,-0.371 0.231,-1.137 1.039,-5.155 0.274,-1.398 c 1.271,-6.849 1.856,-15.2242 1.415,-19.8722 l -0.045,-0.4381 c -0.231,-1.9442 -0.966,-5.3699 -1.625,-7.5758 -3.882,-12.9657 -10.202,-20.3483 -17.888,-22.2578 l -0.35,-0.0796 c -1.78,-0.3642 -3.964,-0.2396 -6.074,0.3242 -2.258,0.6035 -4.219,1.653 -5.401,2.8812 l -0.004,0.0054 -0.005,0.0049 -0.004,0.0032 c -1.84,1.8786 -2.914,3.9065 -3.332,6.3193 -0.399,2.3018 -0.219,5.054 0.615,8.4909 l 0.177,0.6962 c 1.958,7.3723 6.905,15.7811 16.232,27.2182 l 4.84,5.933 -6.894,-3.327 -1.49,-0.709 c -3.476,-1.633 -6.935,-3.111 -10.369,-4.441 l -0.022,-0.009 -0.009,-0.003 -0.016,-0.007 c -1.554,-0.657 -2.931,-1.2126 -3.937,-1.5828 -5.361,-1.9364 -9.193,-3.107 -13.342,-4.0263 l -0.074,-0.0084 -0.079,-0.0289 c -3.564,-0.9346 -7.073,-1.7302 -10.517,-2.3994 l -0.405,-0.08 -0.574,-0.1115 -1.626,-4.9273 -0.011,-0.0328 -10e-4,-0.0053 C 309.859,76.9259 303.596,66.2007 297.201,59.9928 l -0.082,-0.0795 V 59.912 c -4.361,-4.2353 -10.377,-7.6275 -15.237,-8.6726 l -0.002,-2e-4 c -4.576,-0.9929 -8.079,-0.9806 -10.805,-0.1012 -2.668,0.861 -4.767,2.608 -6.462,5.4638 -1.447,2.4364 -1.904,4.9983 -1.422,7.6692 0.489,2.7045 1.965,5.6258 4.566,8.6786 l 0.003,0.0042 0.009,0.0098 0.007,0.0102 c 1.946,2.3687 2.627,2.8412 12.7,8.8201 3.449,2.0474 6.434,3.7399 8.929,5.0842 l 6.34,3.4156 -7.197,-0.2188 -2.299,-0.0543 c -11.386,-0.1934 -21.186,0.7418 -28.613,1.867 l -0.146,0.0236 -0.213,0.0337 -0.207,-0.057 -0.144,-0.0388 c -0.992,-0.2708 -2.074,-0.581 -3.215,-0.9308 l -0.006,-0.0014 -0.013,-0.0039 c -14.752,-4.624 -24.467,-5.1402 -34.94,-2.0837 l -0.002,7e-4 c -5.791,1.6733 -12.97,5.9686 -16.571,9.862 z"
       fill="#ffffff"
       id="path3" />
  </g>
</svg>
