<?xml version="1.0" encoding="UTF-8" standalone="no"?>
<svg
   width="652"
   height="534"
   viewBox="0 0 652 534"
   fill="none"
   version="1.1"
   id="svg3"
   sodipodi:docname="on-light.svg"
   inkscape:version="1.4.2 (f4327f4, 2025-05-13)"
   xmlns:inkscape="http://www.inkscape.org/namespaces/inkscape"
   xmlns:sodipodi="http://sodipodi.sourceforge.net/DTD/sodipodi-0.dtd"
   xmlns="http://www.w3.org/2000/svg"
   xmlns:svg="http://www.w3.org/2000/svg">
  <defs
     id="defs3" />
  <sodipodi:namedview
     id="namedview3"
     pagecolor="#ffffff"
     bordercolor="#000000"
     borderopacity="0.25"
     inkscape:showpageshadow="2"
     inkscape:pageopacity="0.0"
     inkscape:pagecheckerboard="0"
     inkscape:deskcolor="#d1d1d1"
     inkscape:zoom="1.25"
     inkscape:cx="298.4"
     inkscape:cy="310.8"
     inkscape:window-width="1920"
     inkscape:window-height="1017"
     inkscape:window-x="-8"
     inkscape:window-y="-8"
     inkscape:window-maximized="1"
     inkscape:current-layer="svg3" />
  <g
     id="g3"
     transform="translate(-0.01909121,-10.114042)">
    <path
       d="m 240.11233,432.69565 c 13.419,6.478 36.287,14.807 40.781,14.86 2.425,0.052 3,-0.2 4.756,-2.065 1.579,-1.741 2.207,-3.636 1.861,-5.636 -0.831,-4.771 -7.121,-10.129 -19.789,-16.867 -0.831,-0.436 -1.568,-0.839 -2.196,-1.188 2.072,0.398 5.091,0.992 8.359,1.635 l 3.365,0.662 c 15.833,3.207 26.579,4.82 28.764,4.313 0.869,-0.233 2.26,-1.012 3.091,-1.738 1.459,-1.282 1.647,-1.861 1.602,-4.805 -0.057,-3.756 -1.88,-7.441 -4.764,-9.618 -4.099,-3.049 -12.596,-6.219 -22.73,-8.49 -7.756,-1.699 -11.024,-2.621 -12.393,-3.109 0.576,-0.087 1.279,-0.151 1.914,-0.151 11.66,-0.214 30.509,-7.99 38.796,-16.01 2.087,-2.094 2.613,-2.88 2.613,-4.828 0,-1.353 -0.459,-2.801 -1.162,-3.681 l -0.368,-0.481 6.64,-0.545 c 11.288,-0.929 21.755,-3.324 35.006,-8.002 l 5.467,-1.959 1.474,1.741 c 10.076,11.709 21.247,19.594 37.366,26.369 8.047,3.384 14.499,4.888 19.188,4.467 10.719,-0.91 16.408,-6.257 16.465,-15.465 0,-5.305 -1.978,-9.663 -6.618,-14.562 -8.467,-9.096 -20.372,-13.826 -36.4,-14.454 -9.039,-0.372 -12.653,0.233 -22.73,3.779 -3.786,1.354 -6.753,2.275 -7.019,2.324 -1.305,-0.485 -9.543,-12.141 -16.007,-23.696 -14.528,-26.041 -21.481,-42.435 -37.171,-87.717 -2.534,-7.411 -5.903,-16.638 -7.456,-20.605 -1.767,-4.504 -4.832,-12.896 -5.731,-15.359 -1.755,-4.836 -3.579,-9.517 -4.245,-10.904 -0.62,-1.2 -0.782,-1.703 -0.815,-1.91 0.567,-0.143 2.966,-0.542 6.437,-0.978 l 2.297,-0.327 c 3.057,-0.429 6.524,-0.921 8.656,-1.29 11.516,-1.801 28.538,-2.086 31.373,-0.925 0.38,0.162 0.545,0.707 0.545,3.497 0,3.38 0.365,4.689 3.531,12.713 1.071,2.722 2.545,6.489 3.997,10.212 l 3.245,8.287 c 4.049,10.438 11.99,26.85 17.341,35.833 8.546,14.299 18.578,24.88 30.678,32.347 3.993,2.421 3.981,2.598 3.808,3.41 -2.891,13.145 -1.011,24.166 5.159,30.231 6.685,6.531 18.112,9.99 35.957,10.892 10.573,0.527 26.286,-1.06 34.329,-3.463 6.674,-2.045 12.942,-6.741 15.596,-11.678 2.817,-5.159 3.745,-13.619 2.249,-20.56 -0.91,-4.117 -3.166,-8.625 -6.513,-13.039 l -2.432,-3.174 0.458,-11.472 c 0.636,-15.401 0.091,-28.557 -1.977,-48.541 -1.087,-10.81 -1.564,-13.476 -3.93,-21.936 -2.925,-10.419 -4.809,-15.585 -8.065,-22.09 -5.888,-11.78 -9.949,-17.341 -19.755,-27.038 -6.666,-6.614 -12.043,-10.893 -18.559,-14.781 -4.73,-2.805 -18.409,-9.095 -26.613,-12.239 -2.884,-1.09 -6.719,-2.628 -9.517,-3.752 l -1.417,-0.568 c -5.693,-2.282 -18.47,-6.655 -22.79,-7.787 -4.346,-1.135 -7.794,-0.27 -9.223,2.309 -1.602,2.899 -0.132,7.129 3.741,10.787 3.433,3.279 6.979,5.576 15.811,10.258 1.06,0.556 1.981,1.052 2.763,1.473 -7.091,-1.447 -22.729,-4.463 -30.44,-5.809 -5.167,-0.913 -10.013,-1.489 -11.085,-1.293 -0.966,0.256 -2.357,1.203 -3.098,2.113 -1.929,2.32 -1.993,6.933 -0.143,9.686 1.474,2.203 4.561,4.734 7.877,6.444 2.805,1.433 11.288,4.114 16.815,5.313 3.406,0.73 11.915,3.042 16.123,4.294 -0.376,0.008 -0.794,0.011 -1.256,0.011 -7.261,0 -17.845,2.557 -26.343,6.355 -4.406,1.985 -11.686,6.79 -14.701,9.701 -1.925,1.872 -2.414,2.587 -2.414,4.779 0,1.034 0.154,2.406 0.447,3.147 -1.105,0.255 -5.561,0.274 -12.024,0.301 -12.487,0 -13.672,0.09 -25.309,1.936 -8.415,1.327 -12.588,1.921 -12.991,1.921 -0.319,0 -1.143,-0.771 -3.263,-4.459 -5.178,-8.998 -12.337,-16.702 -20.71,-22.286 -9.633,-6.384 -21.075,-9.302 -29.155,-7.429 -9.618,2.244 -14.503,6.79 -15.856,14.739 -0.692,4.546 0.154,7.885 3.166,12.288 4.151,6.102 11.558,10.828 20.853,13.31 2.534,0.688 5.711,0.906 13.069,0.906 8.509,0.053 13.589,-0.256 25.907,-1.568 l 2.729,-0.271 1.497,3.279 c 0.891,1.997 2.937,7.298 4.467,11.577 1.496,4.253 3.854,10.709 5.268,14.296 1.417,3.602 5.042,13.863 7.809,21.864 14.243,41.428 19.342,53.817 32.08,77.986 6.453,12.333 10.743,19.5 16.405,27.377 1.749,2.418 2.959,4.249 3.369,4.952 -2.019,1.207 -15.325,5.58 -24.086,7.508 -3.584,0.824 -16.086,2.452 -19.718,2.584 -0.067,-0.305 -0.131,-1.023 -0.022,-2.365 0.105,-1.903 -0.173,-4.543 -0.696,-6.584 -3.444,-13.205 -22.658,-55.332 -29.794,-65.326 -9.039,-12.687 -19.029,-22.072 -29.685,-27.896 -2.268,-1.237 -2.497,-1.692 -2.508,-1.801 2.865,-7.482 2.902,-19.902 0.094,-26.583 -2.29,-5.351 -8.832,-9.723 -17.939,-11.998 -10.611,-2.741 -16.759,-3.508 -28.591,-3.561 -15.484,-0.053 -25.58,1.523 -33.75,5.26 -7.136,3.279 -9.915,6.381 -11.878,13.284 -0.887,3.14 -1.316,6.456 -1.312,9.75 0,8.069 2.557,16.021 7.125,20.966 l 1.985,2.132 0.207,12.494 c 0.312,19.191 1.23,38.461 2.403,50.29 2.809,27.52 11.43,46.733 28.824,64.228 9.005,9.107 27.553,21.681 43.154,29.242 z m 28.207,-57.554 c -7.621,-1.083 -12.073,-2.422 -17.646,-5.313 -9.332,-4.794 -14.288,-9.75 -18.931,-18.928 -2.031,-4.057 -2.662,-5.915 -3.068,-9.039 -0.91,-7.377 0.383,-11.844 4.624,-15.942 3.422,-3.321 6.321,-4.422 11.487,-4.37 10.107,0.049 21.695,5.836 28.17,14.063 2.29,2.91 8.99,13.359 12.145,18.95 1.91,3.362 5.708,9.099 8.167,12.337 l -0.192,-0.072 c -7.84,-2.744 -17.98,-9.772 -22.139,-15.322 -0.948,-1.331 -2.354,-2.876 -3.681,-2.703 -0.346,0.045 -0.97,0.252 -1.32,1.166 -0.504,1.364 0.346,2.876 3.666,6.47 6.035,6.407 14.258,11.664 24.444,15.623 l 2.309,0.873 -1.497,0.455 c -1.598,0.496 -4.32,1.112 -6.08,1.443 -6.471,1.068 -14.31,1.185 -20.458,0.309 z m 33.005,-7.554 c -3.248,-1.647 -7.234,-6.806 -13.318,-17.24 -9.633,-16.506 -15.829,-23.62 -24.56,-28.2 -6.636,-3.527 -11.69,-4.858 -18.661,-4.914 -5.234,0 -5.832,0.113 -9.159,1.726 -4.272,2.087 -8.013,5.907 -10.009,10.223 -1.305,2.771 -1.459,3.696 -1.41,8.423 0.052,6.422 0.849,9.949 3.399,15.104 4.512,8.926 10.031,14.855 18.454,19.826 9.554,5.636 19.699,7.843 33.919,7.377 8.573,-0.267 11.013,-0.624 18.631,-2.733 3.782,-1.012 6.839,-0.756 9.354,0.77 0.843,0.516 1.253,0.959 1.29,1.392 0.004,0.022 0.004,0.048 0.004,0.075 0,0.628 -0.692,1.534 -2.155,2.842 -6.542,5.772 -18.773,11.183 -29.741,13.157 -6.986,1.252 -22.451,0.861 -28.531,-0.722 -8.708,-2.177 -17.379,-6.174 -23.188,-10.686 -0.62,-0.489 -3.749,-2.933 -4.309,-2.933 -0.684,0 -1.207,0.62 -1.463,0.989 -0.391,0.564 -0.71,1.38 -0.477,2.015 0.602,1.606 8.516,7.031 12.37,8.96 5.561,2.753 11.622,4.873 19.658,6.87 3.357,0.827 8.978,2.35 12.223,3.376 8.137,2.456 10.664,3.117 18.022,4.7 11.314,2.448 20.293,6.001 22.876,9.039 1.5,1.79 2.29,4.445 1.729,5.892 -0.278,0.737 -0.338,0.888 -2.703,0.888 -8.028,0 -46.154,-7.979 -59.13,-12.371 -9.772,-3.327 -20.281,-8.106 -24.432,-11.118 -1.057,-0.812 -2.17,-1.06 -2.974,-0.666 -0.609,0.297 -0.959,0.933 -0.959,1.737 0,2.975 9.689,7.483 17.815,10.739 7.779,3.11 8.445,3.41 23.673,10.821 15.98,7.757 22.688,12.179 24.759,16.323 0.594,1.165 0.756,2.094 0.474,2.699 -0.195,0.421 -0.632,0.715 -1.305,0.872 -2.335,0.583 -23.684,-6.971 -38.34,-14.028 -18.582,-8.926 -37.668,-22.177 -46.41,-32.223 -14.175,-16.259 -21.079,-32.31 -23.842,-55.408 -1.309,-10.475 -2.858,-40.664 -2.858,-55.693 0.049,-17.002 0.263,-17.375 11.532,-19.721 12.423,-2.576 33.558,-3.422 42.672,-1.715 16.935,3.204 32.43,11.359 43.631,22.978 8.208,8.512 14.161,17.424 20.537,30.753 11.164,23.304 19.902,45.041 19.902,49.474 0,0.568 -0.222,0.985 -0.673,1.263 -1.004,0.617 -3.35,0.568 -6.317,-0.932 z m -62.085,-104.205 c -12.513,-4.361 -26.658,-5.67 -43.236,-3.993 -17.492,1.688 -23.775,3.256 -26.895,6.704 -0.982,1.132 -2.11,2.85 -2.369,3.967 -0.075,0.387 -0.196,0.654 -0.29,0.805 -1.086,-1.17 -4.463,-8.475 -5.064,-11.844 -1.264,-7.129 0.515,-16.601 3.824,-20.267 6.978,-7.745 31.287,-11.599 53.076,-8.418 11.028,1.598 19.01,4.038 23.733,7.26 2.214,1.523 4.136,5.039 5.136,9.404 0.346,1.504 0.508,3.568 0.508,5.775 0,3.617 -0.437,7.614 -1.226,10.137 -0.391,1.294 -0.812,2.185 -1.038,2.549 -0.962,-0.338 -3.692,-1.255 -6.159,-2.079 z m 125.498,99.843 c 3.309,-1.643 15.344,-5.125 19.352,-5.568 11.138,-1.185 25.335,2.019 33.765,7.621 4.753,3.132 8.633,7.065 10.389,10.521 1.143,2.282 1.448,3.113 1.448,5.091 0,0.504 -0.019,1.079 -0.049,1.771 -0.154,3.489 -0.297,3.978 -1.707,5.771 -2.444,3.05 -5.411,4.275 -10.938,4.531 -4.177,0.154 -5.065,0.011 -10.487,-1.692 -7.102,-2.282 -19.206,-8.385 -25.906,-13.058 -5.922,-4.189 -14.92,-13.078 -15.867,-14.988 z m -114.883,-166.056 c -11.833,-1.38 -22.425,-7.975 -25.174,-15.676 -1.958,-5.621 0.632,-11.942 6.032,-14.686 13.332,-6.896 34.494,2.004 47.169,19.834 2.917,4.154 4.771,7.599 5.034,8.636 -0.895,0.192 -3.763,0.579 -8.742,1.11 -12.953,1.259 -18.86,1.447 -24.319,0.782 z m 146.613,-25.719 c 13.589,1.861 23.106,5.385 29.938,11.077 2.47,2.068 3.944,2.79 4.933,2.414 0.549,-0.21 0.879,-0.718 0.996,-1.515 0.011,-0.068 0.015,-0.136 0.015,-0.207 0,-0.929 -0.857,-2.053 -2.861,-3.79 -5.61,-4.873 -11.055,-7.388 -24.331,-11.227 -4.313,-1.264 -11.536,-3.377 -16.108,-4.832 -4.693,-1.44 -11.603,-3.361 -15.409,-4.283 -17.348,-4.196 -22.759,-6.2 -26.308,-9.757 -1.862,-1.861 -1.959,-2.173 -1.816,-3.828 0.086,-1.128 0.199,-1.752 0.56,-2.034 0.861,-0.676 3.839,-0.199 9.468,0.771 39.465,6.625 60.539,12.637 75.151,21.451 2.312,1.425 3.733,1.839 4.609,1.35 0.527,-0.29 0.79,-0.858 0.79,-1.677 0,-1.489 -2.418,-4.223 -21.244,-12.141 -10.566,-4.475 -27.519,-12.514 -34.231,-16.232 -7.358,-4.132 -11.618,-8.509 -12.021,-10.701 -0.079,-0.433 -0.015,-0.76 0.192,-1.008 0.282,-0.338 0.666,-0.594 2.515,-0.323 5.419,0.726 33.589,11.276 49.403,18.507 13.807,6.282 22.271,12.265 32.347,22.857 11.31,11.877 18.609,26.128 24.41,47.646 1.963,7.404 3.576,20.789 4.67,38.717 0.617,10.419 0.621,15.048 -0.004,33.039 -0.244,8.302 -0.673,10.855 -1.962,11.867 -4.193,3.173 -27.58,6.869 -38.484,6.091 -1.775,-0.158 -6.625,-0.523 -10.799,-0.835 -13.396,-0.996 -19.318,-2.493 -27.545,-6.971 -11.164,-6.05 -21.346,-15.826 -29.452,-28.271 -6.434,-9.758 -14.762,-26.324 -19.801,-39.401 -1.658,-4.279 -4.132,-10.604 -5.628,-14.337 -4.61,-11.641 -5.174,-13.273 -5.02,-14.796 0.109,-1.098 0.109,-1.098 1.967,-1.056 6.519,0.255 13.197,6.79 21.007,20.563 4.816,8.445 5.215,9.137 8.539,13.307 4.741,5.997 10.483,11.032 15.769,13.806 6.144,3.129 9.381,3.817 16.495,3.501 5.212,-0.263 6.223,-0.485 9.855,-2.136 3.286,-1.56 4.426,-2.44 6.099,-4.707 2.951,-4.023 4.121,-8.223 4.173,-14.965 0.004,-0.267 0.004,-0.53 0.004,-0.786 0,-6.076 -1.248,-10.159 -4.933,-16.352 -6.426,-10.784 -21.293,-19.827 -36.152,-22 -7.208,-1.045 -22.248,-0.41 -29.802,1.26 -7.813,1.711 -10.329,1.737 -12.235,0.113 -0.872,-0.715 -1.41,-1.614 -1.41,-1.858 0,-1.414 8.035,-7.802 14.886,-10.896 12.336,-5.599 25.019,-7.374 38.765,-5.415 z m 12.363,132.089 c 9.269,2.914 29.084,5.038 41.578,4.456 20.007,-0.986 34.194,-5.212 35.149,-10.502 1.109,1.282 3.542,5.58 4.726,9.283 1.327,4.012 1.271,11.156 -0.105,15.597 v 0.004 c -0.914,2.993 -1.5,3.91 -4.177,6.538 -1.933,1.876 -4.513,3.76 -6.419,4.689 -6.742,3.294 -20.518,5.05 -35.957,4.58 -13.209,-0.354 -20.973,-1.839 -27.688,-5.298 -4.964,-2.587 -7.693,-5.546 -9.427,-10.22 -1.282,-3.546 -1.444,-4.534 -1.368,-10.069 0.056,-3.7 0.334,-7.238 0.661,-8.253 l 0.422,-1.621 z m -9.749,-106.807 c 11.016,4.787 19.837,13.901 23.033,23.786 0.737,2.275 1.064,3.576 1.064,5.501 0,1.365 -0.165,3.053 -0.466,5.621 v 0.008 c -0.549,5.373 -3.493,9.577 -8.279,11.848 -2.474,1.188 -13.288,2.124 -20.665,-1.196 -4.43,-1.993 -5.757,-3.196 -10.009,-7.445 -5.821,-5.877 -8.735,-9.866 -12.987,-17.8 -4.065,-7.493 -6.46,-11.032 -10.246,-15.122 -0.294,-0.316 -0.944,-1.008 -1.456,-1.595 3.828,1.516 13.894,7.009 17.808,9.788 2.399,1.718 5.264,3.756 6.309,4.485 1.527,1.061 2.711,1.384 3.523,0.963 0.414,-0.218 0.91,-0.73 0.91,-1.948 0,-2.542 -10.385,-9.464 -20.003,-14.419 -3.065,-1.58 -7.441,-3.527 -9.577,-4.257 -1.034,-0.319 -1.835,-0.628 -2.354,-0.861 2.343,-0.722 9.494,-1.752 16.379,-1.948 11.438,-0.406 18.003,0.711 27.016,4.591 z"
       fill="#000f08"
       id="path1" />
    <path
       d="m 98.79633,341.75465 c 2.419,2.198 5.34,4.114 8.217,5.483 2.907,1.382 5.633,2.14 7.674,2.163 h 0.007 c 2.036,0.032 4.506,-0.797 6.917,-2.367 2.393,-1.557 4.593,-3.758 6.106,-6.258 l 0.006,-0.009 c 0.87,-1.417 1.315,-2.269 1.592,-3.117 0.276,-0.843 0.418,-1.775 0.54,-3.395 0.469,-6.757 -1.718,-14.76 -5.727,-20.799 l -0.03,-0.044 c -2.049,-3.117 -8.657,-10.814 -17.806,-20.67 -3.331,-3.557 -7.005,-7.8 -8.168,-9.476 l -0.01,-0.013 -0.007,-0.011 c -0.893,-1.298 -1.525,-2.199 -1.919,-3.78 -0.354,-1.421 -0.526,-3.433 -0.827,-7.007 -0.469,-5.325 -0.62,-12.297 -0.44,-18.878 l 0.247,-9.007 3.055,8.477 c 3.513,9.75 8.905,19.168 13.631,23.866 l 0.077,0.077 c 1.921,1.906 4.255,3.642 6.572,4.954 2.224,1.259 4.323,2.065 5.95,2.32 l 0.319,0.044 c 1.709,0.194 3.652,-0.018 5.447,-0.557 1.378,-0.413 2.587,-0.994 3.5,-1.655 l -0.011,-0.012 0.823,-0.675 c 0.951,-0.899 1.929,-2.509 2.689,-4.555 0.753,-2.028 1.233,-4.327 1.293,-6.459 l 0.001,-0.021 v -0.008 c 0.135,-3.752 -1.237,-7.935 -4.343,-12.554 -3.109,-4.624 -7.894,-9.591 -14.401,-14.856 l -0.001,-0.001 c -3.026,-2.455 -6.423,-4.645 -13.603,-8.747 l -0.006,-0.003 -8.637,-4.975 0.24,-1.198 c 2.195,-11.009 5.693,-22.668 11.071,-34.545 l 2.636,-5.821 0.607,6.361 0.13,1.289 c 0.317,2.981 0.721,5.769 0.855,6.428 1.942,8.712 7.263,18.445 13.168,24.19 l 0.086,0.083 c 2.616,2.55 4.668,4.034 6.6,4.8 1.652,0.654 3.32,0.824 5.345,0.552 l 0.41,-0.06 0.464,-0.081 c 2.277,-0.428 3.774,-1.006 4.942,-1.87 1.168,-0.863 2.155,-2.12 3.222,-4.165 0.982,-1.948 1.598,-3.509 1.973,-5.123 0.375,-1.616 0.519,-3.328 0.513,-5.589 -0.035,-1.813 -0.439,-4.396 -1.066,-7.008 -0.627,-2.611 -1.444,-5.106 -2.24,-6.754 -0.806,-1.667 -2.426,-4.175 -4.302,-6.72 -1.862,-2.526 -3.893,-4.974 -5.487,-6.554 l -0.002,-0.002 -0.033,-0.032 c -4.153,-4.199 -11.573,-10.239 -15.158,-12.366 l -2.036,-1.209 0.967,-1.485 c 7.34,-11.306 16.632,-22.542 28.319,-33.347 l 4.624,-4.275 -1.843,6.023 c -1.729,5.649 -2.587,11.72 -2.564,17.306 0.024,5.608 0.934,10.6 2.632,14.158 l 0.012,0.024 0.002,0.007 c 1.843,3.943 4.006,6.097 7.55,7.702 l 0.01,0.005 0.012,0.006 0.008,0.004 c 1.653,0.787 3.132,1.204 4.623,1.295 1.483,0.09 3.034,-0.139 4.84,-0.716 l 0.022,-0.009 0.048,-0.014 c 1.908,-0.572 3.166,-1.207 4.158,-2.069 0.994,-0.865 1.841,-2.062 2.755,-3.953 1.621,-3.471 2.104,-7.613 1.399,-14.149 v -0.001 c -0.931,-8.753 -5.125,-19.518 -11.282,-28.72 l -1.129,-1.656 -0.003,-0.005 c -0.345,-0.513 -0.654,-0.978 -0.921,-1.379 l -0.373,-0.56 -0.531,-0.799 1.319,-0.959 1.61,-1.155 c 3.761,-2.661 7.547,-5.079 11.345,-7.24 l 0.045,-0.025 0.021,-0.01 c 0.61,-0.333 1.206,-0.653 1.784,-0.958 l 0.002,-10e-4 0.497,-0.262 0.016,-0.008 0.005,-0.002 c 0.741,-0.381 1.465,-0.748 2.138,-1.07 l 0.007,-0.003 1.388,-0.651 0.006,-0.003 c 7.124,-3.281 16.149,-6.5237 21.071,-7.9225 l 4.977,-1.4148 -3.166,4.0916 -1.42,1.8477 c -7.506,9.84 -10.194,22.134 -7.142,30.484 0.556,1.522 1.164,2.531 1.861,3.317 0.705,0.794 1.569,1.44 2.761,2.164 1.842,1.107 3.544,1.676 5.228,1.801 1.686,0.125 3.463,-0.187 5.463,-0.998 l 0.013,-0.006 0.583,-0.244 c 2.886,-1.291 5.363,-3.538 7.172,-6.584 0.843,-1.422 1.749,-4.022 2.444,-6.998 0.688,-2.947 1.124,-6.058 1.123,-8.425 l -0.001,-10e-4 c 0.002,-2.42 -0.584,-6.268 -1.47,-10.092 -0.885,-3.824 -2.012,-7.3755 -3,-9.2781 l -0.493,-0.9026 c -0.002,-0.003 -0.006,-0.009 -0.012,-0.021 -0.011,-0.018 -0.025,-0.0423 -0.04,-0.069 l -0.1,-0.1811 -1.037,-1.9712 2.177,-0.4804 0.855,-0.1704 c 0.953,-0.1762 2.159,-0.3651 3.241,-0.5329 l 2.23,-0.355 0.009,-10e-4 0.008,-0.002 0.009,-7e-4 c 3.089,-0.4436 8.784,-1.0379 12.621,-1.2266 l 0.003,1e-4 c 2.782,-0.1309 6.152,-0.1588 9.325,-0.118 l 0.004,-2e-4 0.01,8e-4 0.012,-10e-5 c 2.52,0.0718 5.002,0.2035 7.44,0.3928 l 4.39,0.342 -3.479,2.6981 c -4.093,3.1751 -7.705,7.4616 -10.179,11.7636 -2.509,4.362 -3.696,8.469 -3.336,11.327 0.464,3.36 1.532,5.232 3.181,6.419 l 0.338,0.229 0.415,0.246 c 2.828,1.623 5.568,1.729 8.244,0.479 l 0.261,-0.126 c 2.691,-1.348 5.463,-4.144 8.099,-8.585 3.92,-6.605 5.116,-12.021 4.335,-19.5697 l -0.002,-0.0111 -0.377,-3.8888 2.184,0.3621 c 27.748,4.5887 46.87,14.8905 47.365,15.1615 l 0.015,0.008 c 1.086,0.593 2.412,0.193 2.975,-0.846 l 0.009,-0.017 0.004,-0.007 c 0.566,-1.035 0.208,-2.345 -0.824,-2.958 l -0.07,-0.042 c -0.004,-0.002 -0.009,-0.005 -0.016,-0.008 -0.014,-0.008 -0.034,-0.019 -0.059,-0.032 -0.049,-0.026 -0.118,-0.063 -0.206,-0.11 -0.177,-0.093 -0.432,-0.226 -0.762,-0.393 -0.658,-0.333 -1.615,-0.805 -2.848,-1.38 -2.467,-1.152 -6.037,-2.7171 -10.533,-4.419 -8.994,-3.4045 -21.684,-7.3529 -36.656,-9.6333 l -1.302,-0.1973 -0.135,-1.3089 v -10e-4 c -0.09,-0.8767 -0.19,-1.9151 -0.301,-3.1879 -0.674,-6.9453 -2.496,-13.3828 -5.105,-18.637 -2.619,-5.2744 -5.974,-9.2512 -9.644,-11.4296 -1.219,-0.7236 -2.477,-1.2497 -3.726,-1.5732 l -0.018,-0.004 -0.008,-0.003 c -2.956,-0.8162 -6.79,-0.1461 -8.953,1.4576 l -0.018,0.0131 -0.356,0.2782 c -3.659,3.0153 -4.563,8.9249 -1.334,15.2686 2.143,4.1 7.98,9.8702 14.727,14.5045 l 4.916,3.3782 -5.959,-0.2767 c -11.216,-0.5203 -23.251,0.1445 -35.664,2.6298 l -0.575,0.1153 -0.819,0.1634 -0.521,-1.321 c -0.027,-0.0703 -0.048,-0.1139 -0.098,-0.2286 -0.043,-0.1004 -0.098,-0.2287 -0.162,-0.3962 l -0.021,-0.0532 -10e-4,-0.003 -0.07,-0.1854 c -1.21,-3.1363 -3.691,-7.193 -6.827,-11.2751 -2.928,-3.8109 -6.359,-7.5551 -9.711,-10.4917 l -0.683,-0.5883 c -1.616,-1.3572 -2.705,-2.2064 -3.836,-2.917 -1.131,-0.7111 -2.329,-1.3015 -4.177,-2.1181 -4.744,-2.0939 -9.031,-2.7422 -12.641,-2.1511 -3.464,0.5673 -6.406,2.291 -8.645,5.1815 l -0.214,0.2828 -0.386,0.5339 c -1.668,2.4362 -2.139,5.0118 -1.406,8.7877 l 0.007,0.0303 c 0.521,2.7791 1.426,4.882 3.137,6.9305 1.757,2.103 4.421,4.2206 8.602,6.9071 l 0.003,0.002 c 5.222,3.3718 9.993,5.4444 14.998,6.6569 l 5.164,1.2505 -4.931,1.9816 -0.945,0.3845 c -9.462,3.8808 -18.971,9.0262 -28.357,15.7632 l -0.938,0.678 -1.118,0.817 -1.026,-0.93 c -0.645,-0.585 -1.509,-1.392 -2.449,-2.319 -4.823,-4.664 -12.399,-9.061 -19.234,-11.1383 l -0.116,-0.0346 -0.004,-0.002 c -9.212,-2.8256 -17.469,-3.2846 -23.986,-1.5159 l -0.628,0.1793 c -6.944,2.1129 -12.319,7.0825 -14.476,13.1945 -1.687,4.776 -1.139,9.483 1.454,13.333 l 0.165,0.23 c 0.862,1.167 2.353,2.425 4.234,3.526 1.972,1.155 4.245,2.064 6.4,2.506 h 0.002 l 0.067,0.013 c 6.301,1.334 13.228,0.128 30.576,-5.905 0.479,-0.168 0.917,-0.315 1.358,-0.466 l 7.414,-2.529 -5.698,5.376 c -11.049,10.425 -19.954,21.209 -27.073,32.044 l -0.682,1.049 -0.258,0.4 -0.371,0.573 -1.137,-0.231 -5.155,-1.039 -1.398,-0.273 c -6.849,-1.272 -15.224,-1.856 -19.871998,-1.416 l -0.438,0.046 c -1.945,0.23 -5.37,0.966 -7.576,1.624 -12.966,3.882 -20.348,10.202 -22.258,17.888 l -0.08,0.35 c -0.364,1.781 -0.239,3.965 0.325,6.074 0.603,2.258 1.653,4.219 2.881,5.401 l 0.005,0.004 0.005,0.006 0.003,0.004 c 1.879,1.839 3.907,2.913 6.32,3.332 2.301,0.399 5.054,0.218 8.49,-0.616 l 0.697,-0.176 c 7.372,-1.959 15.780998,-6.906 27.217998,-16.233 l 5.933,-4.839 -3.327,6.894 -0.709,1.49 c -1.633,3.475 -3.111,6.935 -4.441,10.368 l -0.009,0.022 -0.003,0.01 -0.007,0.016 c -0.657,1.554 -1.213,2.931 -1.583,3.937 -1.936,5.361 -3.107,9.193 -4.026,13.342 l -0.009,0.073 -0.028,0.08 c -0.935,3.563 -1.731,7.072 -2.4,10.517 l -0.08,0.404 -0.111,0.574 -4.927998,1.626 -0.032,0.011 -0.006,0.002 c -11.057,3.576 -21.782,9.839 -27.99,16.233 l -0.08,0.082 -10e-4,0.001 c -4.235,4.361 -7.628,10.376 -8.673,15.237 v 0.002 c -0.993,4.575 -0.98,8.079 -0.101,10.804 0.861,2.668 2.608,4.768 5.464,6.463 2.436,1.446 4.998,1.904 7.669,1.421 2.704,-0.489 5.626,-1.964 8.679,-4.565 l 0.004,-0.003 0.01,-0.009 0.01,-0.008 c 2.368,-1.946 2.841,-2.627 8.82,-12.7 2.047,-3.449 3.74,-6.433 5.084,-8.929 l 3.415998,-6.34 -0.219,7.197 -0.054,2.3 c -0.194,11.386 0.741,21.186 1.866,28.613 l 0.024,0.145 0.034,0.213 -0.057,0.207 -0.039,0.144 c -0.271,0.992 -0.581,2.074 -0.931,3.216 l -0.001,0.006 -0.004,0.012 c -4.623998,14.752 -5.139998,24.468 -2.084,34.94 l 10e-4,0.003 c 1.673,5.79 5.969,12.969 9.862,16.57 z"
       fill="#000f08"
       id="path2" />
    <path
       d="m 553.24273,212.47365 c -2.4194,-2.199 -5.3404,-4.115 -8.2174,-5.483 -2.907,-1.382 -5.633,-2.141 -7.674,-2.164 l -0.007,0.001 c -2.036,-0.033 -4.506,0.797 -6.917,2.366 -2.393,1.558 -4.593,3.759 -6.106,6.258 l -0.006,0.009 c -0.87,1.417 -1.315,2.269 -1.592,3.117 -0.276,0.844 -0.418,1.776 -0.54,3.396 -0.469,6.756 1.718,14.759 5.727,20.798 l 0.03,0.044 c 2.049,3.117 8.657,10.815 17.806,20.67 3.331,3.558 7.0051,7.801 8.1678,9.476 l 0.01,0.014 0.007,0.011 c 0.8934,1.298 1.5249,2.198 1.9189,3.779 0.3542,1.422 0.5262,3.434 0.8273,7.007 0.4689,5.325 0.62,12.297 0.4395,18.879 l -0.2469,9.006 -3.0543,-8.476 c -3.5133,-9.75 -8.9053,-19.169 -13.6313,-23.866 l -0.077,-0.078 c -1.921,-1.905 -4.255,-3.641 -6.572,-4.954 -2.224,-1.259 -4.323,-2.065 -5.95,-2.319 l -0.32,-0.045 c -1.708,-0.193 -3.651,0.019 -5.446,0.557 -1.379,0.414 -2.587,0.995 -3.5,1.656 l 0.011,0.012 -0.823,0.674 c -0.951,0.899 -1.929,2.509 -2.689,4.555 -0.753,2.028 -1.233,4.328 -1.293,6.459 l -0.001,0.022 v 0.008 c -0.135,3.752 1.237,7.935 4.342,12.553 3.11,4.625 7.895,9.591 14.402,14.857 l 10e-4,10e-4 c 3.026,2.454 6.423,4.645 13.603,8.746 l 0.006,0.004 8.6365,4.975 -0.2397,1.197 c -2.1946,11.009 -5.6928,22.668 -11.0708,34.545 l -2.636,5.821 -0.607,-6.36 -0.13,-1.289 c -0.317,-2.982 -0.721,-5.769 -0.855,-6.428 -1.942,-8.713 -7.263,-18.446 -13.168,-24.191 l -0.086,-0.082 c -2.616,-2.551 -4.668,-4.034 -6.6,-4.8 -1.652,-0.655 -3.32,-0.825 -5.345,-0.553 l -0.41,0.06 -0.464,0.081 c -2.277,0.428 -3.774,1.007 -4.942,1.87 -1.168,0.864 -2.155,2.121 -3.222,4.165 -0.982,1.948 -1.598,3.51 -1.973,5.124 -0.375,1.615 -0.519,3.328 -0.513,5.588 0.035,1.814 0.439,4.397 1.066,7.008 0.627,2.611 1.444,5.106 2.24,6.755 0.806,1.666 2.426,4.174 4.302,6.72 1.862,2.525 3.893,4.974 5.487,6.553 l 0.002,0.003 0.033,0.031 c 4.153,4.2 11.573,10.239 15.158,12.367 l 2.036,1.209 -0.967,1.485 c -7.34,11.305 -16.632,22.542 -28.319,33.346 l -4.624,4.276 1.843,-6.023 c 1.729,-5.649 2.587,-11.721 2.564,-17.306 -0.024,-5.609 -0.934,-10.601 -2.632,-14.159 l -0.012,-0.024 -0.002,-0.007 c -1.843,-3.942 -4.006,-6.096 -7.55,-7.702 l -0.01,-0.004 -0.012,-0.007 -0.008,-0.003 c -1.653,-0.788 -3.132,-1.205 -4.623,-1.295 -1.483,-0.09 -3.034,0.139 -4.841,0.715 l -0.021,0.009 -0.048,0.015 c -1.908,0.572 -3.166,1.206 -4.158,2.069 -0.994,0.864 -1.841,2.061 -2.755,3.953 -1.621,3.47 -2.104,7.613 -1.399,14.148 v 0.002 c 0.931,8.752 5.125,19.518 11.282,28.719 l 1.129,1.656 0.003,0.005 c 0.345,0.513 0.654,0.978 0.921,1.38 l 0.373,0.559 0.531,0.799 -1.319,0.959 -1.61,1.156 c -3.761,2.661 -7.547,5.078 -11.345,7.24 l -0.045,0.025 -0.021,0.01 c -0.61,0.333 -1.206,0.652 -1.784,0.958 l -0.002,10e-4 -0.497,0.261 -0.016,0.009 -0.005,0.002 c -0.741,0.381 -1.465,0.748 -2.139,1.07 l -0.006,0.003 -1.388,0.651 -0.006,0.003 c -7.124,3.281 -16.149,6.523 -21.072,7.922 l -4.976,1.415 3.166,-4.092 1.42,-1.848 c 7.506,-9.839 10.194,-22.134 7.142,-30.484 -0.556,-1.522 -1.164,-2.53 -1.861,-3.316 -0.705,-0.795 -1.57,-1.44 -2.761,-2.165 -1.842,-1.107 -3.544,-1.676 -5.228,-1.8 -1.686,-0.125 -3.463,0.187 -5.463,0.998 l -0.014,0.005 -0.582,0.245 c -2.886,1.29 -5.363,3.537 -7.172,6.584 -0.843,1.421 -1.749,4.021 -2.444,6.998 -0.688,2.946 -1.124,6.058 -1.123,8.425 l 10e-4,10e-4 c -0.002,2.42 0.584,6.268 1.47,10.091 0.885,3.824 2.012,7.376 3,9.279 l 0.493,0.902 c 0.002,0.003 0.006,0.009 0.012,0.021 0.011,0.018 0.025,0.042 0.04,0.069 l 0.1,0.181 1.037,1.971 -2.177,0.481 -0.855,0.17 c -0.953,0.176 -2.159,0.365 -3.241,0.533 l -2.23,0.355 -0.01,0.001 -0.008,0.002 -0.008,10e-4 c -3.089,0.444 -8.785,1.038 -12.621,1.227 l -0.003,-10e-4 c -2.782,0.131 -6.152,0.159 -9.325,0.118 l -0.004,10e-4 -0.011,-10e-4 h -0.011 c -2.52,-0.072 -5.002,-0.204 -7.44,-0.393 l -4.39,-0.342 3.479,-2.698 c 4.093,-3.175 7.705,-7.462 10.179,-11.764 2.509,-4.362 3.696,-8.468 3.336,-11.327 -0.464,-3.36 -1.532,-5.232 -3.181,-6.418 l -0.338,-0.229 -0.415,-0.246 c -2.828,-1.624 -5.568,-1.73 -8.244,-0.48 l -0.261,0.126 c -2.691,1.348 -5.463,4.145 -8.099,8.586 -3.92,6.605 -5.116,12.02 -4.335,19.569 l 0.002,0.011 0.377,3.889 -2.184,-0.362 c -27.748,-4.589 -46.87,-14.89 -47.365,-15.162 l -0.015,-0.008 c -1.087,-0.593 -2.412,-0.192 -2.975,0.847 l -0.009,0.017 -0.004,0.007 c -0.566,1.035 -0.208,2.345 0.824,2.958 l 0.07,0.041 c 0.004,0.002 0.009,0.005 0.016,0.009 0.014,0.007 0.034,0.018 0.059,0.031 0.049,0.027 0.118,0.064 0.206,0.11 0.177,0.093 0.432,0.226 0.762,0.393 0.658,0.334 1.615,0.805 2.848,1.381 2.467,1.151 6.037,2.717 10.533,4.418 8.993,3.405 21.684,7.353 36.656,9.634 l 1.302,0.197 0.135,1.309 v 0.001 c 0.09,0.877 0.19,1.915 0.301,3.188 0.674,6.945 2.496,13.383 5.105,18.637 2.619,5.274 5.974,9.251 9.644,11.43 1.219,0.723 2.477,1.249 3.726,1.573 l 0.018,0.004 0.008,0.003 c 2.956,0.816 6.79,0.146 8.953,-1.458 l 0.018,-0.013 0.356,-0.278 c 3.659,-3.016 4.563,-8.925 1.334,-15.269 -2.144,-4.1 -7.98,-9.87 -14.727,-14.504 l -4.917,-3.379 5.96,0.277 c 11.216,0.52 23.251,-0.144 35.664,-2.63 l 0.574,-0.115 0.82,-0.163 0.52,1.321 c 0.028,0.07 0.049,0.113 0.099,0.228 0.043,0.101 0.098,0.229 0.162,0.396 l 0.021,0.054 0.001,0.003 0.07,0.185 c 1.21,3.136 3.691,7.193 6.827,11.275 2.928,3.811 6.359,7.555 9.711,10.492 l 0.683,0.588 c 1.616,1.357 2.705,2.207 3.836,2.917 1.131,0.711 2.329,1.302 4.177,2.118 4.744,2.094 9.031,2.743 12.641,2.151 3.464,-0.567 6.406,-2.291 8.645,-5.181 l 0.214,-0.283 0.386,-0.534 c 1.668,-2.436 2.139,-5.012 1.406,-8.787 l -0.007,-0.031 c -0.521,-2.779 -1.426,-4.882 -3.137,-6.93 -1.757,-2.103 -4.421,-4.221 -8.603,-6.907 l -0.002,-0.002 c -5.222,-3.372 -9.993,-5.444 -14.998,-6.657 l -5.164,-1.25 4.93,-1.982 0.946,-0.384 c 9.462,-3.881 18.971,-9.026 28.357,-15.763 l 0.938,-0.679 1.118,-0.816 1.026,0.929 c 0.645,0.585 1.509,1.392 2.449,2.319 4.822,4.665 12.399,9.062 19.234,11.139 l 0.116,0.034 0.004,0.002 c 9.212,2.826 17.469,3.285 23.986,1.516 l 0.628,-0.179 c 6.944,-2.113 12.319,-7.082 14.476,-13.195 1.687,-4.775 1.1391,-9.482 -1.4543,-13.332 l -0.1651,-0.231 c -0.8616,-1.166 -2.3536,-2.424 -4.2336,-3.526 -1.972,-1.155 -4.246,-2.064 -6.4,-2.505 h -0.002 l -0.067,-0.014 c -6.301,-1.334 -13.228,-0.127 -30.576,5.906 -0.479,0.167 -0.918,0.315 -1.358,0.465 l -7.414,2.529 5.698,-5.376 c 11.049,-10.425 19.954,-21.209 27.073,-32.044 l 0.682,-1.048 0.258,-0.4 0.371,-0.574 1.137,0.231 5.155,1.039 1.398,0.274 c 6.849,1.271 15.2242,1.856 19.8722,1.415 l 0.4381,-0.045 c 1.9442,-0.231 5.3699,-0.966 7.5758,-1.625 12.9657,-3.882 20.3483,-10.202 22.2578,-17.888 l 0.0796,-0.35 c 0.3642,-1.78 0.2396,-3.964 -0.3242,-6.074 -0.6035,-2.258 -1.653,-4.219 -2.8812,-5.401 l -0.005,-0.004 -0.005,-0.005 -0.003,-0.004 c -1.8786,-1.84 -3.9065,-2.914 -6.3193,-3.332 -2.3018,-0.399 -5.054,-0.219 -8.4909,0.615 l -0.6962,0.177 c -7.3723,1.958 -15.7811,6.905 -27.2182,16.232 l -5.933,4.84 3.327,-6.894 0.709,-1.49 c 1.633,-3.476 3.111,-6.935 4.441,-10.369 l 0.009,-0.022 0.003,-0.009 0.007,-0.016 c 0.657,-1.554 1.2126,-2.931 1.5828,-3.937 1.9364,-5.361 3.107,-9.193 4.0263,-13.342 l 0.008,-0.074 0.0289,-0.079 c 0.9346,-3.564 1.7302,-7.073 2.3994,-10.517 l 0.08,-0.405 0.1115,-0.574 4.9273,-1.626 0.0328,-0.011 0.005,-0.001 c 11.0574,-3.576 21.7826,-9.839 27.9905,-16.234 l 0.0795,-0.082 h 0.001 c 4.2353,-4.361 7.6275,-10.377 8.6726,-15.237 l 2e-4,-0.002 c 0.9929,-4.576 0.9806,-8.079 0.1012,-10.805 -0.861,-2.668 -2.608,-4.767 -5.4638,-6.462 -2.4364,-1.447 -4.9983,-1.904 -7.6692,-1.422 -2.7045,0.489 -5.6258,1.965 -8.6786,4.566 l -0.004,0.003 -0.01,0.009 -0.0102,0.007 c -2.3687,1.946 -2.8412,2.627 -8.8201,12.7 -2.0474,3.449 -3.7399,6.434 -5.0842,8.929 l -3.4156,6.34 0.2188,-7.197 0.0543,-2.299 c 0.1934,-11.386 -0.7418,-21.186 -1.867,-28.613 l -0.0236,-0.146 -0.0337,-0.213 0.057,-0.207 0.0388,-0.144 c 0.2708,-0.992 0.581,-2.074 0.9308,-3.215 l 10e-4,-0.006 0.004,-0.013 c 4.624,-14.752 5.1402,-24.467 2.0837,-34.94 l -7e-4,-0.002 c -1.6733,-5.791 -5.9686,-12.97 -9.862,-16.571 z"
       fill="#000f08"
       id="path3" />
  </g>
</svg>
