<svg width="534" height="652" viewBox="0 0 534 652" fill="none" xmlns="http://www.w3.org/2000/svg">
<path d="M422.401 411.821C428.879 398.402 437.208 375.534 437.261 371.04C437.313 368.615 437.061 368.04 435.196 366.284C433.455 364.705 431.56 364.077 429.56 364.423C424.789 365.254 419.431 371.544 412.693 384.212C412.257 385.043 411.854 385.78 411.505 386.408C411.903 384.336 412.497 381.317 413.14 378.049L413.802 374.684C417.009 358.851 418.622 348.105 418.115 345.92C417.882 345.051 417.103 343.66 416.377 342.829C415.095 341.37 414.516 341.182 411.572 341.227C407.816 341.284 404.131 343.107 401.954 345.991C398.905 350.09 395.735 358.587 393.464 368.721C391.765 376.477 390.843 379.745 390.355 381.114C390.268 380.538 390.204 379.835 390.204 379.2C389.99 367.54 382.214 348.691 374.194 340.404C372.1 338.317 371.314 337.791 369.366 337.791C368.013 337.791 366.565 338.25 365.685 338.953L365.204 339.321L364.659 332.681C363.73 321.393 361.335 310.926 356.657 297.675L354.698 292.208L356.439 290.734C368.148 280.658 376.033 269.487 382.808 253.368C386.192 245.321 387.696 238.869 387.275 234.18C386.365 223.461 381.018 217.772 371.81 217.715C366.505 217.715 362.147 219.693 357.248 224.333C348.152 232.8 343.422 244.705 342.794 260.733C342.422 269.772 343.027 273.386 346.573 283.463C347.927 287.249 348.848 290.216 348.897 290.482C348.412 291.787 336.756 300.025 325.201 306.489C299.16 321.017 282.766 327.97 237.484 343.66C230.073 346.194 220.846 349.563 216.879 351.116C212.375 352.883 203.983 355.948 201.52 356.847C196.684 358.602 192.003 360.426 190.616 361.092C189.416 361.712 188.913 361.874 188.706 361.907C188.563 361.34 188.164 358.941 187.728 355.47L187.401 353.173C186.972 350.116 186.48 346.649 186.111 344.517C184.31 333.001 184.025 315.979 185.186 313.144C185.348 312.764 185.893 312.599 188.683 312.599C192.063 312.599 193.372 312.234 201.396 309.068C204.118 307.997 207.885 306.523 211.608 305.071L219.895 301.826C230.333 297.777 246.745 289.836 255.728 284.485C270.027 275.939 280.608 265.907 288.075 253.807C290.496 249.814 290.673 249.826 291.485 249.999C304.63 252.89 315.651 251.01 321.716 244.84C328.247 238.155 331.706 226.728 332.608 208.883C333.135 198.31 331.548 182.597 329.145 174.554C327.1 167.88 322.404 161.612 317.467 158.958C312.308 156.141 303.848 155.213 296.907 156.709C292.79 157.619 288.282 159.875 283.868 163.222L280.694 165.654L269.222 165.196C253.821 164.56 240.665 165.105 220.681 167.173C209.871 168.26 207.205 168.737 198.745 171.103C188.326 174.028 183.16 175.912 176.655 179.168C164.875 185.056 159.314 189.117 149.617 198.923C143.003 205.589 138.724 210.966 134.836 217.482C132.031 222.212 125.741 235.891 122.597 244.095C121.507 246.979 119.969 250.814 118.845 253.612L118.277 255.029C115.995 260.722 111.622 273.499 110.49 277.819C109.355 282.165 110.22 285.613 112.799 287.042C115.698 288.644 119.928 287.174 123.586 283.301C126.865 279.868 129.162 276.322 133.844 267.49C134.4 266.43 134.896 265.509 135.317 264.727C133.87 271.818 130.854 287.456 129.508 295.167C128.595 300.334 128.019 305.18 128.215 306.252C128.471 307.218 129.418 308.609 130.328 309.35C132.648 311.279 137.261 311.343 140.014 309.493C142.217 308.019 144.748 304.932 146.458 301.616C147.891 298.811 150.572 290.328 151.771 284.801C152.501 281.395 154.813 272.886 156.065 268.678C156.073 269.054 156.076 269.472 156.076 269.934C156.076 277.195 158.633 287.779 162.431 296.277C164.416 300.683 169.221 307.963 172.132 310.978C174.004 312.903 174.719 313.392 176.911 313.392C177.945 313.392 179.317 313.238 180.058 312.945C180.313 314.05 180.332 318.506 180.359 324.969C180.359 337.456 180.449 338.641 182.295 350.278C183.622 358.693 184.216 362.866 184.216 363.269C184.216 363.588 183.445 364.412 179.757 366.532C170.759 371.71 163.055 378.869 157.471 387.242C151.087 396.875 148.169 408.317 150.042 416.397C152.286 426.015 156.832 430.9 164.781 432.253C169.327 432.945 172.666 432.099 177.069 429.087C183.171 424.936 187.897 417.529 190.379 408.234C191.067 405.7 191.285 402.523 191.285 395.165C191.338 386.656 191.029 381.576 189.717 369.258L189.446 366.529L192.725 365.032C194.722 364.141 200.023 362.095 204.302 360.565C208.555 359.069 215.011 356.711 218.598 355.297C222.2 353.88 232.461 350.255 240.462 347.488C281.89 333.245 294.279 328.146 318.448 315.408C330.781 308.955 337.948 304.665 345.825 299.003C348.243 297.254 350.074 296.044 350.777 295.634C351.984 297.653 356.357 310.959 358.285 319.72C359.109 323.304 360.737 335.806 360.869 339.438C360.564 339.505 359.846 339.569 358.504 339.46C356.601 339.355 353.961 339.633 351.92 340.156C338.715 343.6 296.588 362.814 286.594 369.95C273.907 378.989 264.522 388.979 258.698 399.635C257.461 401.903 257.006 402.132 256.897 402.143C249.415 399.278 236.995 399.241 230.314 402.049C224.963 404.339 220.591 410.881 218.316 419.988C215.575 430.599 214.808 436.747 214.755 448.579C214.702 464.063 216.278 474.159 220.015 482.329C223.294 489.465 226.396 492.244 233.299 494.207C236.439 495.094 239.755 495.523 243.049 495.519C251.118 495.519 259.07 492.962 264.015 488.394L266.147 486.409L278.641 486.202C297.832 485.89 317.102 484.972 328.931 483.799C356.451 480.99 375.664 472.369 393.159 454.975C402.266 445.97 414.84 427.422 422.401 411.821ZM364.847 383.614C363.764 391.235 362.425 395.687 359.534 401.26C354.74 410.592 349.784 415.548 340.606 420.191C336.549 422.222 334.691 422.853 331.567 423.259C324.19 424.169 319.723 422.876 315.625 418.635C312.304 415.213 311.203 412.314 311.255 407.148C311.304 397.041 317.091 385.453 325.318 378.978C328.228 376.688 338.677 369.988 344.268 366.833C347.63 364.923 353.367 361.125 356.605 358.666L356.533 358.858C353.789 366.698 346.761 376.838 341.211 380.997C339.88 381.945 338.335 383.351 338.508 384.678C338.553 385.024 338.76 385.648 339.674 385.998C341.038 386.502 342.55 385.652 346.144 382.332C352.551 376.297 357.808 368.074 361.767 357.888L362.64 355.579L363.095 357.076C363.591 358.674 364.207 361.396 364.538 363.156C365.606 369.627 365.723 377.466 364.847 383.614ZM357.293 350.609C355.646 353.857 350.487 357.843 340.053 363.927C323.547 373.56 316.433 379.756 311.853 388.487C308.326 395.123 306.995 400.177 306.939 407.148C306.939 412.382 307.052 412.98 308.665 416.307C310.752 420.579 314.572 424.32 318.888 426.316C321.659 427.621 322.584 427.775 327.311 427.726C333.733 427.674 337.26 426.877 342.415 424.327C351.341 419.815 357.27 414.296 362.241 405.873C367.877 396.319 370.084 386.174 369.618 371.954C369.351 363.381 368.994 360.941 366.885 353.323C365.873 349.541 366.129 346.484 367.655 343.969C368.171 343.126 368.614 342.716 369.047 342.679C369.069 342.675 369.095 342.675 369.122 342.675C369.75 342.675 370.656 343.367 371.964 344.83C377.736 351.372 383.147 363.603 385.121 374.571C386.373 381.557 385.982 397.022 384.399 403.102C382.222 411.81 378.225 420.481 373.713 426.29C373.224 426.91 370.78 430.039 370.78 430.599C370.78 431.283 371.4 431.806 371.769 432.062C372.333 432.453 373.149 432.772 373.784 432.539C375.39 431.937 380.815 424.023 382.744 420.169C385.497 414.608 387.617 408.547 389.614 400.511C390.441 397.154 391.964 391.533 392.99 388.288C395.446 380.151 396.107 377.624 397.69 370.266C400.138 358.952 403.691 349.973 406.729 347.39C408.519 345.89 411.174 345.1 412.621 345.661C413.358 345.939 413.509 345.999 413.509 348.364C413.509 356.392 405.53 394.518 401.138 407.494C397.811 417.266 393.032 427.775 390.02 431.926C389.208 432.983 388.96 434.096 389.354 434.9C389.651 435.509 390.287 435.859 391.091 435.859C394.066 435.859 398.574 426.17 401.83 418.044C404.94 410.265 405.24 409.599 412.651 394.371C420.408 378.391 424.83 371.683 428.974 369.612C430.139 369.018 431.068 368.856 431.673 369.138C432.094 369.333 432.388 369.77 432.545 370.443C433.128 372.778 425.574 394.127 418.517 408.783C409.591 427.365 396.34 446.451 386.294 455.193C370.035 469.368 353.984 476.272 330.886 479.035C320.411 480.344 290.222 481.893 275.193 481.893C258.191 481.844 257.818 481.63 255.472 470.361C252.896 457.938 252.05 436.803 253.757 427.689C256.961 410.754 265.116 395.259 276.735 384.058C285.247 375.85 294.159 369.897 307.488 363.521C330.792 352.357 352.529 343.619 356.962 343.619C357.53 343.619 357.947 343.841 358.225 344.292C358.842 345.296 358.793 347.642 357.293 350.609ZM253.088 412.694C248.727 425.207 247.418 439.352 249.095 455.93C250.783 473.422 252.351 479.705 255.799 482.825C256.931 483.807 258.649 484.935 259.766 485.194C260.153 485.269 260.42 485.39 260.571 485.484C259.401 486.57 252.096 489.947 248.727 490.548C241.598 491.812 232.126 490.033 228.46 486.724C220.715 479.746 216.861 455.437 220.042 433.648C221.64 422.62 224.08 414.638 227.302 409.915C228.825 407.701 232.341 405.779 236.706 404.779C238.21 404.433 240.274 404.271 242.481 404.271C246.098 404.271 250.095 404.708 252.618 405.497C253.912 405.888 254.803 406.309 255.167 406.535C254.829 407.497 253.912 410.227 253.088 412.694ZM352.931 287.196C351.288 283.887 347.806 271.852 347.363 267.844C346.178 256.706 349.382 242.509 354.984 234.079C358.116 229.326 362.049 225.446 365.505 223.69C367.787 222.547 368.618 222.242 370.596 222.242C371.1 222.242 371.675 222.261 372.367 222.291C375.856 222.445 376.345 222.588 378.138 223.998C381.188 226.442 382.413 229.409 382.669 234.936C382.823 239.113 382.68 240.001 380.977 245.423C378.695 252.525 372.592 264.629 367.919 271.329C363.73 277.251 354.841 286.249 352.931 287.196ZM186.875 402.079C185.495 413.912 178.9 424.504 171.199 427.253C165.578 429.211 159.257 426.621 156.513 421.221C149.617 407.889 158.517 386.727 176.347 374.052C180.501 371.135 183.946 369.281 184.983 369.018C185.175 369.913 185.562 372.781 186.093 377.76C187.352 390.713 187.54 396.62 186.875 402.079ZM161.156 255.466C163.017 241.877 166.541 232.36 172.233 225.528C174.301 223.058 175.023 221.584 174.647 220.595C174.437 220.046 173.929 219.716 173.132 219.599C173.064 219.588 172.996 219.584 172.925 219.584C171.996 219.584 170.872 220.441 169.135 222.445C164.262 228.055 161.747 233.5 157.908 246.776C156.644 251.089 154.531 258.312 153.076 262.884C151.636 267.577 149.715 274.487 148.793 278.293C144.597 295.641 142.593 301.052 139.036 304.601C137.175 306.463 136.863 306.56 135.208 306.417C134.08 306.331 133.456 306.218 133.174 305.857C132.498 304.996 132.975 302.018 133.945 296.389C140.57 256.924 146.582 235.85 155.396 221.238C156.821 218.926 157.235 217.505 156.746 216.629C156.456 216.102 155.888 215.839 155.069 215.839C153.58 215.839 150.846 218.257 142.928 237.083C138.453 247.649 130.414 264.602 126.696 271.314C122.564 278.672 118.187 282.932 115.995 283.335C115.562 283.414 115.235 283.35 114.987 283.143C114.649 282.861 114.393 282.477 114.664 280.628C115.39 275.209 125.94 247.039 133.171 231.225C139.453 217.418 145.436 208.954 156.028 198.878C167.905 187.568 182.156 180.269 203.674 174.468C211.078 172.505 224.463 170.892 242.391 169.798C252.81 169.181 257.439 169.177 275.43 169.802C283.732 170.046 286.285 170.475 287.297 171.764C290.47 175.957 294.166 199.344 293.388 210.248C293.23 212.023 292.865 216.873 292.553 221.047C291.557 234.443 290.06 240.365 285.582 248.592C279.532 259.756 269.756 269.938 257.311 278.044C247.553 284.478 230.987 292.806 217.91 297.845C213.631 299.503 207.306 301.977 203.573 303.473C191.932 308.083 190.3 308.647 188.777 308.493C187.679 308.384 187.679 308.384 187.721 306.526C187.976 300.007 194.511 293.329 208.284 285.519C216.729 280.703 217.421 280.304 221.591 276.98C227.588 272.239 232.623 266.497 235.397 261.211C238.526 255.067 239.214 251.83 238.898 244.716C238.635 239.504 238.413 238.493 236.762 234.861C235.202 231.575 234.322 230.435 232.055 228.762C228.032 225.811 223.832 224.641 217.09 224.589C216.823 224.585 216.56 224.585 216.304 224.585C210.228 224.585 206.145 225.833 199.952 229.518C189.168 235.944 180.125 250.811 177.952 265.67C176.907 272.878 177.542 287.918 179.212 295.472C180.923 303.285 180.949 305.801 179.325 307.707C178.61 308.579 177.711 309.117 177.467 309.117C176.053 309.117 169.665 301.082 166.571 294.231C160.972 281.895 159.197 269.212 161.156 255.466ZM293.245 243.103C296.159 233.834 298.283 214.019 297.701 201.525C296.715 181.518 292.489 167.331 287.199 166.376C288.481 165.267 292.779 162.834 296.482 161.65C300.494 160.323 307.638 160.379 312.079 161.755H312.083C315.076 162.669 315.993 163.255 318.621 165.932C320.497 167.865 322.381 170.445 323.31 172.351C326.604 179.093 328.36 192.869 327.89 208.308C327.536 221.517 326.051 229.281 322.592 235.996C320.005 240.96 317.046 243.689 312.372 245.423C308.826 246.705 307.838 246.867 302.303 246.791C298.603 246.735 295.065 246.457 294.05 246.13L292.429 245.708L293.245 243.103ZM186.438 252.852C191.225 241.836 200.339 233.015 210.224 229.819C212.499 229.082 213.8 228.755 215.725 228.755C217.09 228.755 218.778 228.92 221.346 229.221H221.354C226.727 229.77 230.931 232.714 233.202 237.5C234.39 239.974 235.326 250.788 232.006 258.165C230.013 262.595 228.81 263.922 224.561 268.174C218.684 273.995 214.695 276.909 206.761 281.161C199.268 285.226 195.729 287.621 191.639 291.407C191.323 291.701 190.631 292.351 190.044 292.863C191.56 289.035 197.053 278.969 199.832 275.055C201.55 272.656 203.588 269.791 204.317 268.746C205.378 267.219 205.701 266.035 205.28 265.223C205.062 264.809 204.55 264.313 203.332 264.313C200.79 264.313 193.868 274.698 188.913 284.316C187.333 287.381 185.386 291.757 184.656 293.893C184.337 294.927 184.028 295.728 183.795 296.247C183.073 293.904 182.043 286.753 181.847 279.868C181.441 268.43 182.558 261.865 186.438 252.852Z" fill="white"/>
<path d="M331.46 553.137C333.658 550.718 335.574 547.797 336.943 544.92C338.325 542.013 339.083 539.287 339.106 537.246L339.106 537.239C339.138 535.203 338.309 532.733 336.739 530.322C335.182 527.929 332.981 525.729 330.481 524.216L330.472 524.21C329.055 523.34 328.203 522.895 327.355 522.618C326.512 522.342 325.58 522.2 323.96 522.078C317.203 521.609 309.2 523.796 303.161 527.805L303.117 527.835C300 529.884 292.303 536.492 282.447 545.641C278.89 548.972 274.647 552.646 272.971 553.809L272.958 553.819L272.947 553.826C271.649 554.719 270.748 555.351 269.167 555.745C267.746 556.099 265.734 556.271 262.16 556.572C256.835 557.041 249.863 557.192 243.282 557.012L234.275 556.765L242.752 553.71C252.502 550.197 261.92 544.805 266.618 540.079L266.695 540.002C268.601 538.081 270.337 535.747 271.649 533.43C272.908 531.206 273.714 529.107 273.969 527.48L274.013 527.161C274.207 525.452 273.995 523.509 273.456 521.714C273.043 520.336 272.462 519.127 271.801 518.214L271.789 518.225L271.114 517.402C270.215 516.451 268.605 515.473 266.559 514.713C264.531 513.96 262.232 513.48 260.1 513.42L260.079 513.419L260.071 513.419C256.319 513.284 252.136 514.656 247.517 517.762C242.893 520.871 237.926 525.656 232.661 532.163L232.66 532.164C230.205 535.19 228.015 538.587 223.913 545.767L223.91 545.773L218.935 554.41L217.737 554.17C206.728 551.975 195.069 548.477 183.192 543.099L177.371 540.463L183.732 539.856L185.021 539.726C188.002 539.409 190.79 539.005 191.449 538.871C200.161 536.929 209.894 531.608 215.639 525.703L215.722 525.617C218.272 523.001 219.756 520.949 220.522 519.017C221.176 517.365 221.346 515.697 221.074 513.672L221.014 513.262L220.933 512.798C220.505 510.521 219.927 509.024 219.063 507.856C218.2 506.688 216.943 505.701 214.898 504.634C212.95 503.652 211.389 503.036 209.775 502.661C208.159 502.286 206.447 502.142 204.186 502.148C202.373 502.183 199.79 502.587 197.178 503.214C194.567 503.841 192.072 504.658 190.424 505.454C188.757 506.26 186.249 507.88 183.704 509.756C181.178 511.618 178.73 513.649 177.15 515.243L177.148 515.245L177.116 515.278C172.917 519.431 166.877 526.851 164.75 530.436L163.541 532.472L162.056 531.505C150.75 524.165 139.514 514.873 128.709 503.186L124.434 498.562L130.457 500.405C136.106 502.134 142.177 502.992 147.763 502.969C153.371 502.945 158.363 502.035 161.921 500.337L161.945 500.325L161.952 500.323C165.895 498.48 168.049 496.317 169.654 492.773L169.659 492.763L169.665 492.751L169.669 492.743C170.456 491.09 170.873 489.611 170.964 488.12C171.054 486.637 170.825 485.086 170.248 483.28L170.239 483.258L170.225 483.21C169.653 481.302 169.018 480.044 168.156 479.052C167.291 478.058 166.094 477.211 164.203 476.297C160.732 474.676 156.59 474.193 150.054 474.898L150.053 474.898C141.3 475.829 130.535 480.023 121.333 486.18L119.677 487.309L119.672 487.312C119.159 487.657 118.694 487.966 118.293 488.233L117.733 488.606L116.934 489.137L115.975 487.818L114.82 486.208C112.159 482.447 109.741 478.661 107.58 474.863L107.555 474.818L107.545 474.797C107.212 474.187 106.892 473.591 106.587 473.013L106.586 473.011L106.324 472.514L106.316 472.498L106.314 472.493C105.933 471.752 105.566 471.028 105.244 470.355L105.241 470.348L104.59 468.96L104.587 468.954C101.306 461.83 98.0633 452.805 96.6645 447.883L95.2497 442.906L99.3413 446.072L101.189 447.492C111.029 454.998 123.323 457.686 131.673 454.634C133.195 454.078 134.204 453.47 134.99 452.773C135.784 452.068 136.43 451.204 137.154 450.012C138.261 448.17 138.83 446.468 138.955 444.784C139.08 443.098 138.768 441.321 137.957 439.321L137.951 439.308L137.707 438.725C136.416 435.839 134.169 433.362 131.123 431.553C129.701 430.71 127.101 429.804 124.125 429.109C121.178 428.421 118.067 427.985 115.7 427.986L115.699 427.987C113.279 427.985 109.431 428.571 105.607 429.457C101.783 430.342 98.2315 431.469 96.3289 432.457L95.4263 432.95C95.4232 432.952 95.4169 432.956 95.4053 432.962C95.3873 432.973 95.363 432.987 95.3363 433.002L95.1552 433.102L93.184 434.139L92.7036 431.962L92.5332 431.107C92.357 430.154 92.1681 428.948 92.0003 427.866L91.6453 425.636L91.6443 425.627L91.6422 425.619L91.6415 425.61C91.1979 422.521 90.6036 416.826 90.4149 412.989L90.415 412.986C90.2841 410.204 90.2562 406.834 90.297 403.661L90.2968 403.657L90.2976 403.647L90.2975 403.635C90.3693 401.115 90.501 398.633 90.6903 396.195L91.0323 391.805L93.7304 395.284C96.9055 399.377 101.192 402.989 105.494 405.463C109.856 407.972 113.963 409.159 116.821 408.799C120.181 408.335 122.053 407.267 123.24 405.618L123.469 405.28L123.715 404.865C125.338 402.037 125.444 399.297 124.194 396.621L124.068 396.36C122.72 393.669 119.924 390.897 115.483 388.261C108.878 384.341 103.462 383.145 95.9133 383.926L95.9022 383.928L92.0134 384.305L92.3755 382.121C96.9642 354.373 107.266 335.251 107.537 334.756L107.545 334.741C108.138 333.655 107.738 332.329 106.699 331.766L106.682 331.757L106.675 331.753C105.64 331.187 104.33 331.545 103.717 332.577L103.675 332.647C103.673 332.651 103.67 332.656 103.667 332.663C103.659 332.677 103.648 332.697 103.635 332.722C103.609 332.771 103.572 332.84 103.525 332.928C103.432 333.105 103.299 333.36 103.132 333.69C102.799 334.348 102.327 335.305 101.752 336.538C100.6 339.005 99.0349 342.575 97.333 347.071C93.9285 356.065 89.9801 368.755 87.6997 383.727L87.5024 385.029L86.1935 385.164L86.1922 385.164C85.3155 385.254 84.2771 385.354 83.0043 385.465C76.059 386.139 69.6215 387.961 64.3673 390.57C59.0929 393.189 55.1161 396.544 52.9377 400.214C52.2141 401.433 51.688 402.691 51.3645 403.94L51.3606 403.958L51.3578 403.966C50.5416 406.922 51.2117 410.756 52.8154 412.919L52.8285 412.937L53.1067 413.293C56.122 416.952 62.0316 417.856 68.3753 414.627C72.4753 412.484 78.2455 406.647 82.8798 399.9L86.258 394.984L85.9813 400.943C85.461 412.159 86.1258 424.194 88.6111 436.607L88.7264 437.182L88.8898 438.001L87.5688 438.522C87.4985 438.549 87.4549 438.57 87.3402 438.62C87.2398 438.663 87.1115 438.718 86.944 438.782L86.8908 438.803L86.8877 438.804L86.7023 438.874C83.566 440.084 79.5093 442.565 75.4272 445.701C71.6163 448.629 67.8721 452.06 64.9355 455.412L64.3472 456.095C62.99 457.711 62.1408 458.8 61.4302 459.931C60.7191 461.062 60.1287 462.26 59.3121 464.108C57.2182 468.852 56.5699 473.139 57.161 476.749C57.7283 480.213 59.452 483.155 62.3425 485.394L62.6253 485.608L63.1592 485.994C65.5954 487.662 68.171 488.133 71.9469 487.4L71.9772 487.393C74.7563 486.872 76.8592 485.967 78.9077 484.256C81.0107 482.499 83.1283 479.835 85.8148 475.654L85.8163 475.651C89.1881 470.429 91.2607 465.658 92.4732 460.653L93.7237 455.489L95.7053 460.42L96.0898 461.365C99.9706 470.827 105.116 480.336 111.853 489.722L112.531 490.66L113.348 491.778L112.418 492.804C111.833 493.449 111.026 494.313 110.099 495.253C105.435 500.076 101.038 507.652 98.9607 514.487L98.9261 514.603L98.9241 514.607C96.0985 523.819 95.6395 532.076 97.4082 538.593L97.5875 539.221C99.7004 546.165 104.67 551.54 110.782 553.697C115.558 555.384 120.265 554.836 124.115 552.243L124.345 552.078C125.512 551.216 126.77 549.725 127.871 547.844C129.026 545.872 129.935 543.599 130.377 541.444L130.377 541.442L130.39 541.375C131.724 535.074 130.518 528.147 124.485 510.799C124.317 510.32 124.17 509.882 124.019 509.441L121.49 502.027L126.866 507.725C137.291 518.774 148.075 527.679 158.91 534.798L159.959 535.48L160.359 535.738L160.932 536.109L160.701 537.246L159.662 542.401L159.389 543.799C158.117 550.648 157.533 559.023 157.973 563.671L158.019 564.109C158.249 566.054 158.985 569.479 159.643 571.685C163.525 584.651 169.845 592.033 177.531 593.943L177.881 594.023C179.662 594.387 181.846 594.262 183.955 593.698C186.213 593.095 188.174 592.045 189.356 590.817L189.36 590.812L189.366 590.807L189.37 590.804C191.209 588.925 192.283 586.897 192.702 584.484C193.101 582.183 192.92 579.43 192.086 575.994L191.91 575.297C189.951 567.925 185.004 559.516 175.677 548.079L170.838 542.146L177.732 545.473L179.222 546.182C182.697 547.815 186.157 549.293 189.59 550.623L189.612 550.632L189.622 550.635L189.638 550.642C191.192 551.299 192.569 551.855 193.575 552.225C198.936 554.161 202.768 555.332 206.917 556.251L206.99 556.26L207.07 556.288C210.633 557.223 214.142 558.019 217.587 558.688L217.991 558.768L218.565 558.879L220.191 563.807L220.202 563.839L220.204 563.845C223.78 574.902 230.043 585.627 236.437 591.835L236.519 591.915L236.52 591.916C240.881 596.151 246.896 599.544 251.757 600.589L251.759 600.589C256.334 601.582 259.838 601.569 262.563 600.69C265.231 599.829 267.331 598.082 269.026 595.226C270.472 592.79 270.93 590.228 270.447 587.557C269.958 584.853 268.483 581.931 265.882 578.878L265.879 578.874L265.87 578.864L265.862 578.854C263.916 576.486 263.235 576.013 253.162 570.034C249.713 567.987 246.729 566.294 244.233 564.95L237.893 561.534L245.09 561.753L247.39 561.807C258.776 562.001 268.576 561.066 276.003 559.941L276.148 559.917L276.361 559.883L276.568 559.94L276.712 559.979C277.704 560.25 278.786 560.56 279.928 560.91L279.934 560.911L279.946 560.915C294.698 565.539 304.414 566.055 314.886 562.999L314.889 562.998C320.679 561.325 327.858 557.029 331.459 553.136L331.46 553.137Z" fill="white"/>
<path d="M202.179 98.6906C199.98 101.11 198.064 104.031 196.696 106.908C195.314 109.815 194.555 112.541 194.532 114.582L194.533 114.589C194.5 116.625 195.33 119.095 196.899 121.506C198.457 123.899 200.658 126.099 203.157 127.612L203.166 127.618C204.583 128.488 205.435 128.933 206.283 129.21C207.127 129.486 208.059 129.628 209.679 129.75C216.435 130.219 224.438 128.032 230.477 124.023L230.521 123.993C233.638 121.944 241.336 115.336 251.191 106.187C254.749 102.856 258.992 99.1819 260.667 98.0192L260.681 98.0093L260.692 98.0022C261.99 97.1088 262.89 96.4773 264.471 96.0833C265.893 95.7291 267.905 95.5571 271.478 95.256C276.803 94.7871 283.775 94.636 290.357 94.8165L299.363 95.0634L290.887 98.1177C281.137 101.631 271.718 107.023 267.021 111.749L266.943 111.826C265.038 113.747 263.302 116.081 261.989 118.398C260.73 120.622 259.924 122.721 259.67 124.348L259.625 124.668C259.432 126.376 259.644 128.319 260.182 130.114C260.596 131.493 261.177 132.701 261.838 133.614L261.85 133.603L262.524 134.426C263.423 135.377 265.033 136.355 267.079 137.115C269.107 137.868 271.407 138.348 273.538 138.408L273.56 138.409L273.568 138.409C277.32 138.544 281.503 137.172 286.121 134.067C290.746 130.957 295.712 126.172 300.978 119.665L300.979 119.664C303.433 116.638 305.624 113.241 309.725 106.061L309.729 106.055L314.704 97.4185L315.901 97.6582C326.91 99.8528 338.569 103.351 350.446 108.729L356.267 111.365L349.907 111.972L348.618 112.102C345.636 112.419 342.849 112.823 342.19 112.957C333.477 114.899 323.744 120.22 317.999 126.125L317.917 126.211C315.366 128.827 313.883 130.879 313.117 132.811C312.462 134.463 312.292 136.131 312.564 138.156L312.624 138.566L312.705 139.03C313.133 141.307 313.712 142.804 314.575 143.972C315.439 145.14 316.696 146.127 318.74 147.194C320.688 148.176 322.25 148.792 323.864 149.167C325.479 149.542 327.192 149.686 329.452 149.68C331.266 149.645 333.849 149.241 336.46 148.614C339.071 147.987 341.566 147.17 343.215 146.374C344.881 145.568 347.389 143.948 349.935 142.072C352.46 140.21 354.909 138.179 356.488 136.585L356.491 136.583L356.522 136.55C360.722 132.397 366.761 124.977 368.889 121.392L370.098 119.356L371.583 120.323C382.888 127.663 394.125 136.955 404.929 148.642L409.205 153.266L403.182 151.423C397.533 149.694 391.461 148.836 385.876 148.859C380.267 148.883 375.275 149.793 371.717 151.491L371.693 151.503L371.686 151.505C367.744 153.348 365.59 155.511 363.984 159.055L363.98 159.065L363.973 159.077L363.97 159.085C363.182 160.738 362.765 162.217 362.675 163.708C362.585 165.191 362.814 166.742 363.39 168.549L363.399 168.57L363.414 168.618C363.986 170.526 364.62 171.784 365.483 172.776C366.347 173.77 367.544 174.617 369.436 175.531C372.906 177.152 377.049 177.635 383.584 176.93L383.586 176.93C392.338 175.999 403.104 171.805 412.305 165.648L413.961 164.519L413.966 164.516C414.479 164.171 414.944 163.862 415.346 163.595L415.905 163.222L416.704 162.691L417.663 164.01L418.819 165.62C421.48 169.381 423.897 173.167 426.059 176.965L426.084 177.01L426.094 177.031C426.427 177.641 426.746 178.237 427.052 178.815L427.053 178.817L427.314 179.314L427.323 179.33L427.325 179.335C427.706 180.076 428.073 180.8 428.395 181.474L428.398 181.48L429.049 182.868L429.052 182.874C432.333 189.998 435.575 199.023 436.974 203.946L438.389 208.922L434.297 205.756L432.449 204.336C422.61 196.83 410.315 194.142 401.965 197.194C400.443 197.75 399.435 198.358 398.649 199.055C397.854 199.76 397.209 200.625 396.484 201.816C395.377 203.658 394.808 205.36 394.684 207.044C394.559 208.73 394.871 210.507 395.682 212.507L395.687 212.521L395.932 213.103C397.222 215.989 399.469 218.466 402.516 220.275C403.937 221.118 406.537 222.024 409.514 222.719C412.46 223.407 415.572 223.843 417.939 223.842L417.94 223.841C420.36 223.843 424.208 223.257 428.031 222.371C431.855 221.486 435.407 220.359 437.31 219.371L438.212 218.878C438.215 218.876 438.221 218.872 438.233 218.866C438.251 218.855 438.275 218.841 438.302 218.826L438.483 218.726L440.454 217.689L440.935 219.866L441.105 220.721C441.281 221.674 441.47 222.88 441.638 223.962L441.993 226.192L441.994 226.202L441.996 226.21L441.997 226.218C442.441 229.307 443.035 235.003 443.224 238.839L443.223 238.842C443.354 241.624 443.382 244.994 443.341 248.167L443.342 248.171L443.341 248.182L443.341 248.193C443.269 250.713 443.137 253.195 442.948 255.633L442.606 260.023L439.908 256.544C436.733 252.451 432.446 248.839 428.144 246.365C423.782 243.856 419.676 242.669 416.817 243.029C413.457 243.493 411.585 244.561 410.399 246.21L410.17 246.548L409.924 246.963C408.3 249.791 408.194 252.531 409.444 255.207L409.57 255.468C410.918 258.159 413.715 260.931 418.156 263.567C424.761 267.487 430.176 268.683 437.725 267.902L437.736 267.9L441.625 267.523L441.263 269.707C436.674 297.455 426.373 316.577 426.101 317.072L426.093 317.087C425.5 318.174 425.901 319.499 426.94 320.062L426.957 320.071L426.964 320.075C427.999 320.641 429.309 320.283 429.922 319.251L429.963 319.181C429.965 319.177 429.968 319.172 429.972 319.165C429.979 319.151 429.99 319.131 430.003 319.106C430.03 319.057 430.067 318.988 430.113 318.9C430.206 318.723 430.339 318.468 430.506 318.138C430.84 317.48 431.311 316.523 431.887 315.29C433.038 312.823 434.604 309.253 436.305 304.757C439.71 295.764 443.658 283.073 445.939 268.101L446.136 266.799L447.445 266.664L447.446 266.664C448.323 266.574 449.361 266.474 450.634 266.363C457.579 265.689 464.017 263.867 469.271 261.258C474.545 258.639 478.522 255.284 480.701 251.614C481.424 250.395 481.95 249.137 482.274 247.888L482.278 247.87L482.281 247.862C483.097 244.906 482.427 241.072 480.823 238.909L480.81 238.891L480.532 238.535C477.516 234.876 471.607 233.972 465.263 237.201C461.163 239.345 455.393 245.181 450.759 251.928L447.38 256.845L447.657 250.885C448.177 239.669 447.513 227.634 445.027 215.221L444.912 214.647L444.749 213.827L446.07 213.307C446.14 213.279 446.183 213.258 446.298 213.208C446.399 213.165 446.527 213.11 446.694 213.046L446.748 213.025L446.751 213.024L446.936 212.954C450.072 211.744 454.129 209.263 458.211 206.127C462.022 203.199 465.766 199.768 468.703 196.416L469.291 195.733C470.648 194.117 471.498 193.028 472.208 191.897C472.919 190.766 473.51 189.568 474.326 187.72C476.42 182.976 477.069 178.689 476.477 175.079C475.91 171.615 474.186 168.673 471.296 166.434L471.013 166.22L470.479 165.834C468.043 164.166 465.467 163.695 461.692 164.428L461.661 164.435C458.882 164.956 456.779 165.861 454.731 167.572C452.628 169.329 450.51 171.993 447.824 176.175L447.822 176.177C444.45 181.399 442.378 186.17 441.165 191.175L439.915 196.339L437.933 191.409L437.549 190.463C433.668 181.001 428.523 171.492 421.786 162.106L421.107 161.168L420.291 160.05L421.22 159.024C421.805 158.379 422.612 157.515 423.539 156.575C428.204 151.753 432.601 144.176 434.678 137.341L434.712 137.225L434.714 137.221C437.54 128.009 437.999 119.752 436.23 113.235L436.051 112.607C433.938 105.663 428.969 100.288 422.856 98.131C418.081 96.444 413.374 96.9919 409.524 99.5853L409.293 99.7504C408.127 100.612 406.869 102.104 405.767 103.984C404.612 105.956 403.703 108.23 403.262 110.384L403.262 110.386L403.248 110.453C401.914 116.754 403.121 123.681 409.154 141.029C409.321 141.508 409.469 141.947 409.619 142.387L412.148 149.801L406.772 144.103C396.347 133.054 385.563 124.149 374.728 117.03L373.68 116.348L373.28 116.09L372.706 115.719L372.937 114.582L373.976 109.427L374.25 108.029C375.521 101.18 376.106 92.8048 375.665 88.1568L375.62 87.7187C375.389 85.7745 374.654 82.3488 373.995 80.1429C370.113 67.1772 363.793 59.7946 356.107 57.8851L355.757 57.8055C353.977 57.4413 351.793 57.5659 349.683 58.1297C347.425 58.7332 345.464 59.7827 344.282 61.0109L344.278 61.0163L344.273 61.0212L344.269 61.0244C342.429 62.903 341.355 64.9309 340.937 67.3437C340.538 69.6455 340.718 72.3977 341.552 75.8346L341.729 76.5308C343.687 83.9031 348.634 92.3119 357.961 103.749L362.801 109.682L355.907 106.355L354.417 105.646C350.941 104.013 347.482 102.535 344.048 101.205L344.026 101.196L344.017 101.193L344.001 101.186C342.447 100.529 341.07 99.9734 340.064 99.6032C334.703 97.6668 330.871 96.4962 326.722 95.5769L326.648 95.5685L326.569 95.5396C323.005 94.605 319.496 93.8094 316.052 93.1402L315.647 93.0602L315.073 92.9487L313.447 88.0214L313.436 87.9886L313.435 87.9833C309.859 76.9259 303.596 66.2007 297.201 59.9928L297.119 59.9133L297.119 59.912C292.758 55.6767 286.742 52.2845 281.882 51.2394L281.88 51.2392C277.304 50.2463 273.801 50.2586 271.075 51.138C268.407 51.999 266.308 53.746 264.613 56.6018C263.166 59.0382 262.709 61.6001 263.191 64.271C263.68 66.9755 265.156 69.8968 267.757 72.9496L267.76 72.9538L267.769 72.9636L267.776 72.9738C269.722 75.3425 270.403 75.815 280.476 81.7939C283.925 83.8413 286.91 85.5338 289.405 86.8781L295.745 90.2937L288.548 90.0749L286.249 90.0206C274.863 89.8272 265.063 90.7624 257.636 91.8876L257.49 91.9112L257.277 91.9449L257.07 91.8879L256.926 91.8491C255.934 91.5783 254.852 91.2681 253.711 90.9183L253.705 90.9169L253.692 90.913C238.94 86.289 229.225 85.7728 218.752 88.8293L218.75 88.83C212.959 90.5033 205.78 94.7986 202.179 98.692L202.179 98.6906Z" fill="white"/>
</svg>
